<svg width="684" height="608" viewBox="0 0 684 608" fill="none" xmlns="http://www.w3.org/2000/svg">
<g clip-path="url(#clip0_214_153)">
<path d="M530.666 537.119L539.651 503.753C557.13 498.873 575.536 498.332 593.271 502.18C564.461 516.697 558.972 555.8 536.487 578.935C529.418 586.096 520.829 591.576 511.355 594.967C501.882 598.357 491.766 599.573 481.759 598.523L458.58 606.483C459.248 590.253 463.426 574.361 470.827 559.901C478.227 545.441 488.675 532.758 501.45 522.725C508.672 517.167 516.566 512.541 524.944 508.956C526.968 522.927 530.666 537.119 530.666 537.119Z" fill="#F2F2F2"/>
<path d="M110.631 489.678L95.4668 433.363C65.9663 425.126 34.901 424.214 4.96826 430.708C53.5929 455.21 62.8573 521.206 100.807 560.252C112.737 572.339 127.233 581.587 143.223 587.31C159.212 593.033 176.284 595.084 193.174 593.312L232.294 606.747C231.168 579.354 224.116 552.532 211.625 528.127C199.134 503.723 181.501 482.316 159.941 465.383C147.751 456.003 134.429 448.195 120.288 442.144C116.872 465.724 110.631 489.678 110.631 489.678Z" fill="#F2F2F2"/>
<path d="M502.236 144.373V52.9267C502.236 38.8897 496.66 25.4276 486.734 15.5019C476.808 5.5762 463.346 0 449.309 0H255.567C241.53 2.65216e-06 228.068 5.57621 218.143 15.5019C208.217 25.4276 202.641 38.8897 202.641 52.9267V554.609C202.641 568.646 208.217 582.109 218.142 592.034C228.068 601.96 241.53 607.536 255.567 607.536H449.309C463.346 607.536 476.808 601.96 486.734 592.034C496.66 582.109 502.236 568.646 502.236 554.609V209.466C502.674 209.466 503.108 209.38 503.513 209.212C503.918 209.045 504.286 208.799 504.596 208.489C504.906 208.179 505.152 207.811 505.32 207.406C505.488 207.001 505.574 206.567 505.574 206.128V147.711C505.574 146.826 505.222 145.977 504.596 145.351C503.97 144.725 503.121 144.373 502.236 144.373V144.373Z" fill="#3F3D56"/>
<path d="M490.972 53.2904V554.249C490.974 564.654 486.869 574.64 479.55 582.036C472.231 589.433 462.289 593.643 451.884 593.751C451.74 593.766 451.596 593.772 451.451 593.769H256.766C246.285 593.768 236.233 589.604 228.822 582.193C221.411 574.781 217.247 564.73 217.246 554.249V53.2904C217.247 42.8091 221.411 32.7574 228.822 25.346C236.233 17.9346 246.285 13.7705 256.766 13.7695H280.392C279.231 16.6218 278.788 19.7157 279.104 22.7792C279.419 25.8427 280.482 28.7818 282.199 31.3378C283.917 33.8939 286.237 35.9887 288.954 37.4378C291.672 38.8869 294.703 39.646 297.783 39.6482H408.777C411.854 39.6397 414.881 38.8764 417.595 37.4251C420.308 35.9739 422.623 33.879 424.338 31.3244C426.053 28.7697 427.115 25.8333 427.431 22.7726C427.747 19.7119 427.307 16.6205 426.149 13.7695H451.451C461.933 13.7705 471.984 17.9346 479.396 25.346C486.807 32.7574 490.971 42.8091 490.972 53.2904Z" fill="white"/>
<path opacity="0.5" d="M203.711 195.532C202.517 195.531 201.372 195.055 200.527 194.211C199.683 193.366 199.207 192.221 199.206 191.027V160.39C199.208 159.197 199.683 158.052 200.528 157.209C201.373 156.365 202.518 155.892 203.711 155.892C204.905 155.892 206.05 156.365 206.895 157.209C207.74 158.052 208.215 159.197 208.217 160.39V191.027C208.215 192.221 207.74 193.366 206.896 194.211C206.051 195.055 204.906 195.531 203.711 195.532V195.532Z" fill="#01BF71"/>
<path opacity="0.5" d="M202.81 136.061C201.616 136.06 200.47 135.585 199.626 134.74C198.781 133.895 198.306 132.75 198.305 131.556V100.92C198.306 99.7258 198.782 98.5816 199.627 97.7381C200.471 96.8946 201.616 96.4209 202.81 96.4209C204.004 96.4209 205.149 96.8946 205.993 97.7381C206.838 98.5816 207.314 99.7258 207.315 100.92V131.556C207.314 132.75 206.839 133.895 205.994 134.74C205.15 135.585 204.004 136.06 202.81 136.061V136.061Z" fill="#01BF71"/>
<path d="M322.652 18.9223C322.654 17.7279 323.129 16.5827 323.973 15.7381C324.818 14.8935 325.963 14.4184 327.158 14.417H357.794C358.988 14.4188 360.132 14.8942 360.975 15.739C361.819 16.5837 362.293 17.7286 362.293 18.9223C362.293 20.1161 361.819 21.261 360.975 22.1057C360.132 22.9505 358.988 23.4259 357.794 23.4277H327.158C325.963 23.4263 324.818 22.9512 323.973 22.1066C323.129 21.2619 322.654 20.1168 322.652 18.9223V18.9223Z" fill="white"/>
<path d="M203.711 247.794C202.517 247.792 201.372 247.317 200.527 246.473C199.683 245.628 199.207 244.483 199.206 243.288V212.652C199.208 211.458 199.683 210.314 200.528 209.471C201.373 208.627 202.518 208.153 203.711 208.153C204.905 208.153 206.05 208.627 206.895 209.471C207.74 210.314 208.215 211.458 208.217 212.652V243.288C208.215 244.483 207.74 245.628 206.896 246.473C206.051 247.317 204.906 247.792 203.711 247.794V247.794Z" fill="#3F3D56"/>
<path d="M374.915 23.4277C377.403 23.4277 379.42 21.4106 379.42 18.9223C379.42 16.4341 377.403 14.417 374.915 14.417C372.426 14.417 370.409 16.4341 370.409 18.9223C370.409 21.4106 372.426 23.4277 374.915 23.4277Z" fill="white"/>
<path d="M332.956 574.34L345.082 574.339L350.85 527.569H332.954L332.956 574.34Z" fill="#9E616A"/>
<path d="M329.863 570.381L333.276 570.381L346.601 564.962L353.743 570.38H353.744C357.78 570.38 361.651 571.984 364.505 574.838C367.359 577.691 368.962 581.562 368.962 585.598V586.093L329.864 586.094L329.863 570.381Z" fill="#2F2E41"/>
<path d="M389.29 574.34L401.416 574.339L407.184 527.569H389.288L389.29 574.34Z" fill="#9E616A"/>
<path d="M386.197 570.381L389.61 570.381L402.935 564.962L410.077 570.38H410.078C414.114 570.38 417.984 571.984 420.838 574.838C423.692 577.691 425.296 581.562 425.296 585.598V586.093L386.198 586.094L386.197 570.381Z" fill="#2F2E41"/>
<path d="M398.983 318.388L303.712 320.873L305.369 367.266C305.369 367.266 303.712 379.692 307.026 383.006C310.339 386.32 311.996 386.32 310.339 392.119C308.683 397.918 317.437 407.39 316.373 408.453C315.31 409.516 312.825 415.315 312.825 415.315L321.109 462.536C321.109 462.536 326.908 544.552 328.565 546.209C330.222 547.866 331.879 546.209 330.222 550.351C328.565 554.493 326.908 552.836 328.565 554.493C330.033 556.076 331.415 557.735 332.707 559.464H352.737C352.737 559.464 354.247 551.179 354.247 550.351C354.247 549.523 355.904 544.552 355.904 543.723C355.904 542.895 354.439 541.431 354.439 541.431C353.933 539.747 353.591 538.017 353.418 536.267C353.418 534.611 348.448 470.821 348.448 470.821L358.389 387.977L382.414 469.164C382.414 469.164 382.414 540.41 384.071 542.067C385.727 543.723 385.727 542.895 384.899 546.209C384.071 549.523 380.757 548.694 383.242 551.179C385.728 553.665 386.556 549.523 385.728 553.665L384.899 557.807L409.752 558.162C409.752 558.162 413.066 551.179 411.409 548.694C409.752 546.209 409.852 546.887 411.873 542.82C413.894 538.753 414.723 537.924 413.894 537.096C413.066 536.267 413.066 531.861 413.066 531.861L408.924 452.595C408.924 452.595 408.095 368.923 408.095 366.437C408.033 365.158 408.269 363.883 408.784 362.71V359.337L405.61 347.383L398.983 318.388Z" fill="#2F2E41"/>
<path d="M324.447 152.002C338.631 152.002 350.129 140.504 350.129 126.32C350.129 112.137 338.631 100.639 324.447 100.639C310.264 100.639 298.766 112.137 298.766 126.32C298.766 140.504 310.264 152.002 324.447 152.002Z" fill="#9E616A"/>
<path d="M312.778 143.789L311.74 142.956C311.72 142.941 309.747 141.375 307.864 141.649C307.434 141.721 307.025 141.882 306.663 142.124C306.3 142.365 305.993 142.68 305.762 143.049C305.63 143.252 305.44 143.411 305.217 143.506C304.995 143.601 304.749 143.627 304.511 143.582C302.067 143.197 297.656 135.967 295.433 128.705C294.062 124.226 292.446 116.111 296.897 111.786C297.242 109.828 300.792 92.1794 316.4 91.6891C332.458 91.1784 343.149 94.4211 345.728 100.568C346.167 101.614 346.61 102.845 347.044 104.227C347.266 104.901 347.292 105.624 347.12 106.312C346.948 107 346.584 107.626 346.072 108.116C345.606 108.569 345.036 108.899 344.412 109.077C343.788 109.255 343.129 109.275 342.495 109.136C342.417 109.925 342.21 110.696 341.883 111.419C340.479 114.46 336.948 116.444 332.887 116.475C330.48 116.439 328.099 115.98 325.851 115.117L332.349 120.116L316.822 118.184L321.908 120.903L320.89 121.387C317.727 122.789 315.119 125.199 313.471 128.24C311.824 131.281 311.23 134.783 311.784 138.197L312.778 143.789Z" fill="#2F2E41"/>
<path d="M394.303 306.112C397.916 299.872 394.475 290.856 394.475 290.856C394.475 290.856 403.824 277.034 401.53 271.138L390.521 185.832C390.521 185.832 387.08 176.655 379.051 172.067C376.848 170.808 365.286 171.303 362.749 171.324L354.513 167.803C354.034 169.55 345.051 151.339 345.004 153.15C339.269 153.15 335.575 153.942 326.652 155.444C311.158 158.055 318.965 172.055 319.946 173.708C319.551 173.733 319.158 173.788 318.771 173.871C316.753 174.249 309.87 180.202 309.87 180.202L297.563 191.134C279.015 205.689 283.168 228.401 283.168 228.401L310.215 255.62L298.366 310.23C298.366 310.23 303.401 318.339 300.797 321.975C298.194 325.611 323.738 324.567 323.738 324.567C341.368 332.425 403.479 325.783 403.479 325.783C402.619 323.535 394.303 306.112 394.303 306.112Z" fill="#E6E6E6"/>
<path d="M1.19064 607.631H682.573C682.888 607.63 683.19 607.505 683.412 607.281C683.635 607.058 683.76 606.756 683.76 606.441C683.76 606.125 683.635 605.823 683.412 605.6C683.19 605.377 682.888 605.251 682.573 605.25H1.19064C0.875452 605.251 0.573504 605.377 0.350952 605.6C0.1284 605.823 0.00341797 606.125 0.00341797 606.441C0.00341797 606.756 0.1284 607.058 0.350952 607.281C0.573504 607.505 0.875452 607.63 1.19064 607.631V607.631Z" fill="#168C8C"/>
<path d="M305.684 366.88C304.785 365.87 304.118 364.675 303.73 363.379C303.342 362.083 303.243 360.719 303.44 359.38C303.637 358.042 304.125 356.764 304.869 355.635C305.614 354.506 306.597 353.554 307.749 352.845L296.081 306.978L312.034 313.09L320.899 356.404C321.96 358.418 322.246 360.752 321.701 362.963C321.157 365.174 319.82 367.108 317.945 368.399C316.069 369.691 313.786 370.249 311.526 369.969C309.266 369.689 307.188 368.59 305.684 366.88Z" fill="#9E616A"/>
<path d="M284.212 219.678L282.771 237.994C282.771 237.994 280.979 258.117 281.448 261.838C281.917 265.559 282.791 288.283 282.791 288.283L297.976 318.322L315.181 313.734L314.152 299.642L315.181 312.587L317.475 301.117L311.74 281.617L315.181 274.735L313.446 251.633L284.212 219.678Z" fill="#E6E6E6"/>
<path d="M679.859 343.265C677.833 340.862 674.959 339.332 671.834 338.992C671.39 338.944 670.943 338.92 670.496 338.92L439.89 338.704C438.221 338.698 436.568 339.035 435.034 339.693C433.5 340.351 432.117 341.317 430.971 342.531C428.763 344.931 427.557 348.084 427.599 351.345L427.564 388.806C427.547 395.593 429.017 402.302 431.873 408.459C430.279 414.501 427.616 420.208 424.009 425.311C422.887 426.927 422.243 428.828 422.153 430.793C422.062 432.759 422.528 434.711 423.497 436.424C424.466 438.137 425.898 439.541 427.63 440.477C429.361 441.412 431.322 441.839 433.285 441.71C435.716 441.56 438.137 441.285 440.539 440.885C447.531 439.79 454.202 437.192 460.092 433.269C464.624 434.695 469.346 435.422 474.096 435.425L636.251 435.576C642.366 435.598 648.425 434.404 654.075 432.064C659.725 429.723 664.853 426.283 669.162 421.942C677.94 412.982 682.817 400.913 682.729 388.369L682.763 351.599C682.814 348.564 681.785 345.611 679.859 343.265V343.265Z" fill="#01BF71"/>
<path d="M619.606 372.699L490.717 372.578C490.349 372.578 489.984 372.505 489.644 372.364C489.304 372.223 488.995 372.016 488.735 371.755C488.475 371.495 488.269 371.185 488.128 370.845C487.987 370.504 487.915 370.14 487.916 369.771C487.916 369.403 487.989 369.039 488.13 368.698C488.271 368.358 488.478 368.049 488.739 367.789C488.999 367.529 489.309 367.323 489.649 367.182C489.989 367.042 490.354 366.969 490.722 366.97L619.612 367.09C620.355 367.091 621.068 367.387 621.594 367.913C622.119 368.44 622.414 369.153 622.413 369.897C622.413 370.641 622.116 371.354 621.59 371.879C621.064 372.405 620.35 372.699 619.606 372.699V372.699Z" fill="white"/>
<path d="M619.59 389.912L490.701 389.791C490.333 389.791 489.968 389.718 489.628 389.577C489.288 389.436 488.979 389.229 488.719 388.968C488.459 388.707 488.252 388.398 488.112 388.058C487.971 387.717 487.899 387.353 487.899 386.984C487.9 386.616 487.973 386.251 488.114 385.911C488.255 385.571 488.462 385.262 488.723 385.002C488.983 384.742 489.293 384.536 489.633 384.395C489.973 384.254 490.338 384.182 490.706 384.183L619.595 384.303C620.339 384.304 621.052 384.6 621.578 385.126C622.103 385.653 622.398 386.366 622.397 387.11C622.396 387.854 622.1 388.567 621.574 389.092C621.047 389.618 620.334 389.912 619.59 389.912H619.59Z" fill="white"/>
<path d="M505.705 407.018L490.685 407.004C490.317 407.004 489.952 406.931 489.612 406.79C489.272 406.648 488.963 406.442 488.703 406.181C488.443 405.92 488.236 405.611 488.096 405.271C487.955 404.93 487.883 404.565 487.883 404.197C487.884 403.829 487.957 403.464 488.098 403.124C488.239 402.784 488.446 402.475 488.706 402.215C488.967 401.955 489.277 401.749 489.617 401.608C489.957 401.467 490.322 401.395 490.69 401.396L505.71 401.409C506.453 401.411 507.165 401.708 507.69 402.234C508.214 402.761 508.508 403.473 508.508 404.216C508.507 404.959 508.211 405.672 507.686 406.197C507.161 406.722 506.448 407.018 505.705 407.018V407.018Z" fill="white"/>
<path d="M3.20073 198.265C5.2269 195.862 8.10076 194.332 11.2256 193.992C11.6699 193.944 12.1164 193.92 12.5633 193.92L243.17 193.704C244.839 193.698 246.492 194.035 248.026 194.693C249.56 195.351 250.943 196.317 252.089 197.531C254.297 199.931 255.503 203.084 255.46 206.345L255.495 243.806C255.513 250.593 254.042 257.302 251.187 263.459C252.78 269.501 255.444 275.208 259.051 280.311C260.173 281.927 260.816 283.828 260.907 285.793C260.998 287.759 260.532 289.711 259.563 291.424C258.594 293.137 257.161 294.541 255.43 295.477C253.698 296.412 251.738 296.839 249.775 296.71C247.344 296.56 244.923 296.285 242.52 295.885C235.529 294.79 228.858 292.192 222.967 288.269C218.436 289.695 213.714 290.422 208.964 290.425L46.8091 290.576C40.6935 290.598 34.6345 289.404 28.9845 287.064C23.3345 284.723 18.2063 281.283 13.8981 276.942C5.12009 267.982 0.242905 255.913 0.331128 243.369L0.296735 206.599C0.245663 203.564 1.27495 200.611 3.20073 198.265V198.265Z" fill="#01BF71"/>
<path d="M60.647 224.897C60.6472 224.154 60.9422 223.441 61.4675 222.914C61.9927 222.388 62.7052 222.092 63.4487 222.09L192.338 221.97C193.081 221.969 193.795 222.264 194.321 222.789C194.848 223.315 195.144 224.028 195.145 224.771C195.145 225.515 194.851 226.229 194.325 226.755C193.8 227.282 193.087 227.578 192.343 227.578L63.4539 227.699C62.7105 227.699 61.9974 227.403 61.4712 226.878C60.945 226.353 60.6486 225.641 60.647 224.897V224.897Z" fill="white"/>
<path d="M60.6631 242.11C60.6633 241.366 60.9584 240.653 61.4836 240.127C62.0088 239.601 62.7213 239.305 63.4648 239.303L192.354 239.183C193.098 239.182 193.811 239.477 194.338 240.002C194.864 240.528 195.16 241.241 195.161 241.984C195.161 242.728 194.867 243.442 194.341 243.968C193.816 244.494 193.103 244.791 192.359 244.791L63.47 244.912C62.7266 244.911 62.0135 244.616 61.4873 244.091C60.9611 243.566 60.6647 242.853 60.6631 242.11V242.11Z" fill="white"/>
<path d="M174.548 259.217C174.548 258.473 174.843 257.76 175.368 257.234C175.894 256.708 176.606 256.411 177.35 256.41L192.37 256.396C193.113 256.395 193.827 256.69 194.353 257.215C194.88 257.74 195.176 258.453 195.177 259.197C195.177 259.941 194.883 260.655 194.357 261.181C193.832 261.707 193.119 262.004 192.375 262.004L177.355 262.018C176.611 262.018 175.898 261.723 175.372 261.198C174.846 260.672 174.549 259.96 174.548 259.217V259.217Z" fill="white"/>
<path d="M467.673 111.559C466.388 112.202 465.26 113.12 464.367 114.247C463.475 115.373 462.841 116.682 462.51 118.08C462.178 119.479 462.157 120.933 462.448 122.34C462.74 123.747 463.336 125.074 464.195 126.226L444.587 155.138L462.739 155.373L478.576 127.881C480.416 126.31 481.615 124.118 481.946 121.721C482.278 119.324 481.719 116.889 480.375 114.877C479.031 112.865 476.995 111.416 474.654 110.804C472.313 110.193 469.829 110.461 467.673 111.559V111.559Z" fill="#9E616A"/>
<path d="M473.899 138.824L443.692 194.368L443.424 194.385C443.202 194.4 433.591 195.036 421.853 195.673C419.873 195.781 418.708 199.292 416.641 199.397C415.218 199.469 409.966 206.07 408.53 206.138C395.736 206.746 388.398 212.593 383.53 212.138C376.931 211.589 368.142 193.437 363.348 188.87L363.236 188.751L363.219 188.588C362.883 185.257 363.693 181.911 365.514 179.102C367.335 176.293 370.059 174.188 373.237 173.135C388.607 168.132 404.929 166.77 420.915 169.156L430.007 170.524L457.605 133.456L473.899 138.824Z" fill="#E6E6E6"/>
<path d="M636.859 31.2653C634.833 28.8623 631.959 27.332 628.834 26.9923C628.39 26.9442 627.943 26.9199 627.496 26.9195L396.89 26.7042C395.221 26.6983 393.568 27.0349 392.034 27.6931C390.5 28.3514 389.117 29.3174 387.971 30.5313C385.763 32.931 384.557 36.0843 384.599 39.3449L384.564 76.8056C384.547 83.593 386.017 90.3017 388.873 96.4591C387.279 102.501 384.616 108.208 381.009 113.311C379.887 114.927 379.243 116.828 379.153 118.793C379.062 120.759 379.528 122.711 380.497 124.424C381.466 126.137 382.898 127.541 384.63 128.477C386.361 129.412 388.322 129.839 390.285 129.71C392.716 129.56 395.137 129.285 397.539 128.885C404.531 127.79 411.202 125.192 417.092 121.269C421.624 122.695 426.346 123.422 431.096 123.425L593.251 123.576C599.366 123.598 605.425 122.404 611.075 120.064C616.725 117.723 621.853 114.283 626.162 109.942C634.94 100.982 639.817 88.9127 639.729 76.3694L639.763 39.5987C639.814 36.5644 638.785 33.6107 636.859 31.2653V31.2653Z" fill="#01BF71"/>
<path d="M576.606 60.6987L447.717 60.5784C447.349 60.5781 446.984 60.5052 446.644 60.3639C446.304 60.2227 445.995 60.0158 445.735 59.7552C445.475 59.4945 445.269 59.1852 445.128 58.8448C444.987 58.5044 444.915 58.1397 444.916 57.7715C444.916 57.4032 444.989 57.0386 445.13 56.6985C445.271 56.3584 445.478 56.0494 445.739 55.7892C445.999 55.5291 446.309 55.3228 446.649 55.1822C446.989 55.0416 447.354 54.9694 447.722 54.9697L576.612 55.0901C577.355 55.0908 578.068 55.3869 578.594 55.9133C579.119 56.4397 579.414 57.1533 579.413 57.897C579.413 58.6408 579.116 59.3538 578.59 59.8792C578.064 60.4046 577.35 60.6994 576.606 60.6987V60.6987Z" fill="white"/>
<path d="M576.59 77.9116L447.701 77.7913C446.957 77.7906 446.244 77.4945 445.719 76.9681C445.194 76.4417 444.899 75.7281 444.899 74.9843C444.9 74.2406 445.196 73.5276 445.723 73.0022C446.249 72.4767 446.963 72.1819 447.706 72.1826L576.595 72.3029C577.339 72.3036 578.052 72.5998 578.578 73.1262C579.103 73.6526 579.398 74.3662 579.397 75.1099C579.396 75.8537 579.1 76.5667 578.574 77.0921C578.047 77.6175 577.334 77.9123 576.59 77.9116H576.59Z" fill="white"/>
<path d="M462.705 95.0182L447.685 95.0042C447.317 95.0039 446.952 94.931 446.612 94.7897C446.272 94.6485 445.963 94.4416 445.703 94.181C445.443 93.9203 445.236 93.611 445.096 93.2706C444.955 92.9302 444.883 92.5655 444.883 92.1972C444.884 91.829 444.957 91.4644 445.098 91.1243C445.239 90.7842 445.446 90.4752 445.706 90.215C445.967 89.9549 446.277 89.7486 446.617 89.608C446.957 89.4674 447.322 89.3952 447.69 89.3955L462.71 89.4095C463.453 89.4114 464.165 89.7081 464.69 90.2344C465.214 90.7606 465.508 91.4735 465.508 92.2165C465.507 92.9594 465.211 93.6718 464.686 94.1971C464.161 94.7223 463.448 95.0177 462.705 95.0182V95.0182Z" fill="white"/>
</g>
<defs>
<clipPath id="clip0_214_153">
<rect width="683.763" height="607.631" fill="white"/>
</clipPath>
</defs>
</svg>
