<svg width="306" height="258" viewBox="0 0 306 258" fill="none" xmlns="http://www.w3.org/2000/svg">
<path opacity="0.1" d="M108.146 22.7588C80.1899 48.4331 64.0158 88.2043 28.7392 105.162C-14.9819 126.171 -1.19135 172.957 24.1424 203.262C54.5497 239.764 100.041 258.152 147.134 256.96C196.575 255.734 259.739 244.361 280 192.4C288.683 170.096 288.614 145.137 283.575 121.744C271.555 65.9011 243.191 12.9522 182.546 1.88572C155.033 -3.15379 128.78 3.79256 108.146 22.7588Z" fill="#01BF71"/>
<path opacity="0.2" d="M193.204 83.1992H171.31V238.879H193.204V83.1992Z" fill="#079B49"/>
<g opacity="0.1">
<path opacity="0.1" d="M272.066 113.98H193.204V115.683H272.066V113.98Z" fill="#079B49"/>
</g>
<g opacity="0.1">
<path opacity="0.1" d="M272.066 145.546H193.204V147.248H272.066V145.546Z" fill="#079B49"/>
</g>
<g opacity="0.1">
<path opacity="0.1" d="M272.066 177.145H193.204V178.847H272.066V177.145Z" fill="#079B49"/>
</g>
<g opacity="0.1">
<path opacity="0.1" d="M272.066 208.71H193.204V210.412H272.066V208.71Z" fill="#079B49"/>
</g>
<path opacity="0.1" d="M272.066 83.1992H193.204V238.879H236.653C250.648 232.069 262.94 222.807 272.066 210.379V83.1992Z" fill="#079B49"/>
<path opacity="0.2" d="M17.9111 195.157C19.8861 197.984 21.9632 200.708 24.1424 203.296C26.3217 205.917 28.6031 208.471 30.9526 210.889V119.905H17.9111V195.157Z" fill="#079B49"/>
<g opacity="0.1">
<path opacity="0.1" d="M130.449 143.435H30.9187V144.763H130.449V143.435Z" fill="#079B49"/>
</g>
<g opacity="0.1">
<path opacity="0.1" d="M130.449 167.576H30.9187V168.904H130.449V167.576Z" fill="#079B49"/>
</g>
<g opacity="0.1">
<path opacity="0.1" d="M130.449 191.685H30.9187V193.013H130.449V191.685Z" fill="#079B49"/>
</g>
<g opacity="0.1">
<path opacity="0.1" d="M130.449 215.826H30.9187V217.154H130.449V215.826Z" fill="#079B49"/>
</g>
<path opacity="0.1" d="M30.9187 210.889C41.883 222.33 54.4818 231.66 68.1362 238.913H130.449V119.905H30.9187V210.889Z" fill="#079B49"/>
<path d="M66.6375 194.511C73.686 210.856 73.0391 226.757 73.0391 226.757C73.0391 226.757 60.9511 216.168 53.8685 199.823C46.82 183.479 47.467 167.577 47.467 167.577C47.467 167.577 59.589 178.167 66.6375 194.511Z" fill="#3F3D56"/>
<path d="M56.0492 182.766C56.2078 181.82 55.5545 180.923 54.5901 180.761C53.6257 180.599 52.7154 181.235 52.5568 182.181C52.3983 183.127 53.0516 184.025 54.016 184.186C54.9804 184.348 55.8907 183.712 56.0492 182.766Z" fill="#079C49"/>
<path d="M57.3527 196.786C57.4397 196.267 57.0741 195.773 56.5363 195.683C55.9984 195.593 55.4918 195.941 55.4048 196.46C55.3178 196.979 55.6834 197.473 56.2212 197.564C56.7591 197.654 57.2657 197.306 57.3527 196.786Z" fill="#079C49"/>
<path d="M52.4724 201.117C66.297 212.524 73.0731 226.995 73.0731 226.995C73.0731 226.995 57.4439 223.011 43.6193 211.604C29.7947 200.197 23.0186 185.726 23.0186 185.726C23.0186 185.726 38.6478 189.71 52.4724 201.117Z" fill="#079C49"/>
<path d="M36.7519 198.321C36.8389 197.802 36.4733 197.308 35.9354 197.218C35.3975 197.128 34.891 197.476 34.804 197.995C34.717 198.515 35.0825 199.009 35.6204 199.099C36.1583 199.189 36.6649 198.841 36.7519 198.321Z" fill="#3F3D56"/>
<path d="M45.9391 203.413C46.0261 202.894 45.6606 202.4 45.1227 202.31C44.5848 202.22 44.0782 202.568 43.9912 203.087C43.9043 203.606 44.2698 204.1 44.8077 204.19C45.3456 204.281 45.8521 203.933 45.9391 203.413Z" fill="#3F3D56"/>
<path d="M54.0077 215.191C54.0947 214.671 53.7292 214.177 53.1913 214.087C52.6534 213.997 52.1468 214.345 52.0598 214.864C51.9729 215.384 52.3384 215.878 52.8763 215.968C53.4142 216.058 53.9207 215.71 54.0077 215.191Z" fill="#3F3D56"/>
<path d="M65.6278 203.441C65.7148 202.921 65.3493 202.427 64.8114 202.337C64.2735 202.247 63.767 202.595 63.68 203.114C63.593 203.634 63.9585 204.128 64.4964 204.218C65.0343 204.308 65.5409 203.96 65.6278 203.441Z" fill="#079C49"/>
<path d="M283.269 200.776C267.775 217.223 248.911 224.442 248.911 224.442C248.911 224.442 255.177 205.033 270.67 188.586C286.163 172.14 305.027 164.921 305.027 164.921C305.027 164.921 298.762 184.33 283.269 200.776Z" fill="#3F3D56"/>
<path d="M291.599 182.507C292.785 182.215 293.507 181.001 293.21 179.796C292.914 178.59 291.711 177.85 290.524 178.143C289.337 178.435 288.615 179.649 288.912 180.854C289.209 182.059 290.412 182.799 291.599 182.507Z" fill="#079C49"/>
<path d="M275.94 191.088C276.597 190.926 276.999 190.262 276.837 189.605C276.675 188.947 276.011 188.546 275.354 188.708C274.696 188.87 274.295 189.534 274.457 190.191C274.618 190.849 275.283 191.25 275.94 191.088Z" fill="#079C49"/>
<path d="M268.457 187.564C262.123 209.391 248.673 224.578 248.673 224.578C248.673 224.578 245.438 204.351 251.772 182.525C258.105 160.698 271.555 145.512 271.555 145.512C271.555 145.512 274.756 165.738 268.457 187.564Z" fill="#079C49"/>
<path d="M263.778 167.832C264.436 167.671 264.837 167.006 264.675 166.349C264.514 165.692 263.849 165.29 263.192 165.452C262.535 165.614 262.133 166.278 262.295 166.935C262.457 167.593 263.121 167.994 263.778 167.832Z" fill="#3F3D56"/>
<path d="M262.453 181.081C263.11 180.92 263.512 180.255 263.35 179.598C263.188 178.941 262.524 178.539 261.867 178.701C261.209 178.863 260.808 179.527 260.969 180.184C261.131 180.842 261.796 181.243 262.453 181.081Z" fill="#3F3D56"/>
<path d="M252.82 196.438C253.477 196.276 253.879 195.612 253.717 194.954C253.555 194.297 252.891 193.895 252.233 194.057C251.576 194.219 251.174 194.884 251.336 195.541C251.498 196.198 252.162 196.6 252.82 196.438Z" fill="#3F3D56"/>
<path d="M272.359 204.031C273.016 203.869 273.418 203.205 273.256 202.547C273.094 201.89 272.43 201.488 271.772 201.65C271.115 201.812 270.713 202.476 270.875 203.134C271.037 203.791 271.701 204.193 272.359 204.031Z" fill="#079C49"/>
<path opacity="0.25" d="M182.716 67.6034C190.276 67.6034 196.405 61.4749 196.405 53.915C196.405 46.3551 190.276 40.2266 182.716 40.2266C175.157 40.2266 169.028 46.3551 169.028 53.915C169.028 61.4749 175.157 67.6034 182.716 67.6034Z" fill="#079C49"/>
<path d="M182.717 65.0495C188.866 65.0495 193.851 60.0643 193.851 53.9149C193.851 47.7654 188.866 42.7803 182.717 42.7803C176.567 42.7803 171.582 47.7654 171.582 53.9149C171.582 60.0643 176.567 65.0495 182.717 65.0495Z" fill="white"/>
<path opacity="0.25" d="M190.003 53.4722H184.589C184.385 52.655 183.636 52.0421 182.751 52.0421C182.342 52.0421 181.968 52.1783 181.661 52.3826L177.132 47.1729L176.417 47.7858L181.014 53.0977C180.878 53.3701 180.81 53.6425 180.81 53.9489C180.81 55.0045 181.661 55.8558 182.717 55.8558C183.602 55.8558 184.351 55.2429 184.555 54.4257H189.969V53.4722H190.003ZM182.717 54.9024C182.172 54.9024 181.763 54.4597 181.763 53.9489C181.763 53.4041 182.206 52.9955 182.717 52.9955C183.227 52.9955 183.67 53.4382 183.67 53.9489C183.67 54.4597 183.261 54.9024 182.717 54.9024Z" fill="#079C49"/>
<path opacity="0.2" d="M91.2903 93.585C91.2903 93.585 84.0034 94.7086 79.2363 99.5779C78.998 99.7822 78.8277 99.9865 78.6234 100.225C78.5894 100.259 78.5894 100.293 78.5553 100.327C78.5553 100.395 78.5553 100.463 78.5553 100.531C78.8618 107.58 73.8904 113.505 73.8904 113.505C73.8904 113.505 74.7757 113.232 75.0141 113.13C77.1252 112.415 82.9138 110.917 86.7275 106.558C91.4946 101.178 91.2903 93.585 91.2903 93.585Z" fill="#079B49"/>
<path d="M88.7707 91.984V91.8818L88.6685 91.9159C88.6004 91.9499 82.4713 93.6184 78.2831 98.1472L78.3171 98.3515C82.1989 94.0951 87.8173 92.3245 88.6345 92.0861C88.7366 92.9715 89.4517 99.9178 85.6721 105.366C82.1989 110.405 76.0017 112.653 74.3672 113.164L73.9246 113.47L73.9927 113.436C74.0608 113.402 81.7562 111.291 85.8083 105.434C89.8603 99.6113 88.8047 92.0861 88.7707 91.984Z" fill="white"/>
<path d="M68.4082 96.8874C64.3221 93.278 59.3507 91.916 59.3507 91.916C59.3507 91.916 58.227 99.4412 62.3131 105.332C66.3992 111.223 73.9244 113.47 73.9244 113.47C73.9244 113.47 68.3742 107.954 68.0677 100.939C67.9655 99.5434 68.1358 98.1814 68.4082 96.8874Z" fill="white"/>
<path opacity="0.2" d="M78.5895 100.531C78.5895 100.463 78.5895 100.394 78.5895 100.326C78.1809 93.38 72.7328 88 72.7328 88C72.7328 88 69.532 91.7796 68.4083 96.8872C68.1359 98.1812 67.9657 99.5432 68.0678 100.939C68.3743 107.988 73.9245 113.47 73.9245 113.47C73.8905 113.504 78.8959 107.579 78.5895 100.531Z" fill="#079B49"/>
<path d="M73.8223 113.504H73.9925L72.7326 88.2725H72.5964L73.8223 113.504Z" fill="white"/>
<path opacity="0.15" d="M78.5556 100.326L79.2366 99.5771C79.2366 99.5771 80.5305 106.387 75.0143 113.129L73.9587 113.504C73.9928 113.504 78.9642 107.477 78.5556 100.326Z" fill="#079C49"/>
<path opacity="0.05" d="M68.4084 96.8871C68.4084 96.8871 65.9227 105.093 73.9928 113.504L72.5967 113.027C72.5967 113.027 69.2938 110.61 67.6593 104.787C66.093 99.2366 67.5912 96.2061 67.5912 96.2061L68.4084 96.8871Z" fill="#079C49"/>
<path d="M69.1234 119.905H78.5214C78.93 119.905 79.3046 119.667 79.3727 119.327L80.4283 114.832C80.5645 114.287 80.5985 113.742 80.4964 113.197V113.061C80.4283 112.414 79.7813 111.938 78.9981 111.938H68.6467C67.8976 111.938 67.2506 112.414 67.1485 113.061V113.197C67.0804 113.742 67.1144 114.287 67.2166 114.832L68.2721 119.327C68.3402 119.667 68.7148 119.905 69.1234 119.905Z" fill="white"/>
<path opacity="0.35" d="M69.1234 119.905H78.5214C78.93 119.905 79.3046 119.667 79.3727 119.327L80.4283 114.832C80.5645 114.287 80.5985 113.742 80.4964 113.197V113.061C80.4283 112.414 79.7813 111.938 78.9981 111.938H68.6467C67.8976 111.938 67.2506 112.414 67.1485 113.061V113.197C67.0804 113.742 67.1144 114.287 67.2166 114.832L68.2721 119.327C68.3402 119.667 68.7148 119.905 69.1234 119.905Z" fill="#079C49"/>
<path opacity="0.15" d="M80.496 113.197V113.061C80.4279 112.414 79.7809 111.938 78.9978 111.938H77.9082C77.9082 111.938 79.6107 113.844 78.1465 116.875C77.159 118.918 71.6428 119.599 67.9653 117.964L68.2718 119.292C68.3399 119.633 68.7145 119.871 69.1231 119.871H78.5211C78.9297 119.871 79.3042 119.633 79.3723 119.292L80.4279 114.798C80.5301 114.287 80.5641 113.742 80.496 113.197Z" fill="#079C49"/>
<path d="M85.0254 234.248L105.864 252.839C111.687 254.167 117.578 255.189 123.537 255.87L129.087 235.439L78.8281 195.191L85.0254 234.248Z" fill="#29293A"/>
<path d="M175.396 116.126L155.953 161.652C155.953 161.652 129.359 160.971 107.124 163.559C84.8888 166.147 68.1699 169.62 68.1699 169.62L71.0302 210.072L84.5483 220.287L178.086 207.28C178.086 207.28 191.127 129.78 189.935 123.924C188.744 118.101 175.396 116.126 175.396 116.126Z" fill="#29293A"/>
<path opacity="0.15" d="M83.1863 179.869L68.1699 169.653C68.1699 169.653 84.8548 166.18 107.124 163.626C129.393 161.039 155.953 161.72 155.953 161.72L170.186 167.27C123.094 169.722 83.1863 179.869 83.1863 179.869Z" fill="white"/>
<path d="M188.369 121.301L170.186 167.236L155.953 161.686L175.396 116.16C175.396 116.126 184.589 117.488 188.369 121.301Z" fill="#5D4837"/>
<path opacity="0.1" d="M83.1863 179.868L85.025 234.247L71.7793 220.287L68.1699 169.619L83.1863 179.868Z" fill="white"/>
<path d="M158.541 113.504C158.541 113.504 240.705 122.868 245.745 128.486C250.784 134.139 220.581 188.654 218.061 225.258L140.187 178.439L158.541 113.504Z" fill="#01BF71"/>
<path opacity="0.1" d="M231.92 126.614C237.368 125.354 245.779 128.52 245.779 128.52C250.818 134.173 220.615 188.688 218.095 225.293L200.661 214.805C206.109 176.804 226.472 127.873 231.92 126.614Z" fill="white"/>
<path d="M117.339 210.958L85.0251 185.045L82.4373 207.689L120.029 243.033L117.339 210.958Z" fill="#079B49"/>
<path d="M108.35 85.1737C108.35 85.1737 113.594 105.638 112.606 110.337C111.619 115.036 110.086 124.911 110.086 129.916C110.086 134.922 107.396 146.159 109.235 148.814C111.074 151.504 109.746 151.811 111.074 151.504C112.402 151.164 113.764 150.653 113.764 146.329C113.764 141.97 115.262 134.956 115.603 130.087C115.943 125.217 124.796 116.194 127.146 114.866C129.495 113.538 129.495 111.359 129.495 111.359C129.495 111.359 124.626 82.8241 108.35 85.1737Z" fill="#29293A"/>
<path d="M54.0388 154.297L60.8149 163.456C60.8149 163.456 74.6736 167.338 80.5643 166.589C89.077 165.465 77.7041 157.327 77.7041 157.327L70.5875 156.714L68.5444 153.241L60.6787 146.533L54.0388 154.297Z" fill="#F3B18D"/>
<path d="M46.616 142.413L47.8758 145.716C47.9099 145.784 47.978 145.818 48.0461 145.818H48.1142L54.6519 162.98C55.0265 163.967 56.1502 164.682 57.1717 164.546L68.2382 163.218C69.2597 163.082 69.7705 162.197 69.3959 161.209L63.0625 144.626H63.1306C63.1646 144.626 63.1987 144.592 63.1987 144.524L62.4836 142.651C62.4496 142.617 62.4155 142.583 62.3815 142.583H62.3134L62.0409 141.868H62.1091C62.1431 141.868 62.1771 141.834 62.1771 141.766L61.4621 139.927C61.428 139.893 61.394 139.859 61.3259 139.859H61.2578L60.8832 138.906H60.9513C60.9854 138.906 61.0194 138.872 60.9854 138.838L60.6108 137.816C60.6108 137.782 60.5427 137.748 60.5087 137.748H60.4406L59.6574 135.705C59.2828 134.718 58.1592 134.003 57.1376 134.139L46.0712 135.467C45.0496 135.603 44.5389 136.488 44.9134 137.476L46.7522 142.277H46.6841C46.65 142.311 46.616 142.345 46.616 142.413Z" fill="#28283D"/>
<path d="M53.29 135.569L51.4853 135.774C51.4172 135.774 51.3831 135.842 51.4172 135.91L51.4853 136.046C51.5193 136.114 51.5874 136.182 51.6555 136.148L53.4602 135.944C53.5283 135.944 53.5624 135.876 53.5283 135.808L53.4602 135.671C53.4262 135.603 53.3581 135.569 53.29 135.569Z" fill="#28283D"/>
<path d="M51.1052 136.233C51.169 136.14 51.12 135.996 50.9959 135.911C50.8718 135.826 50.7195 135.832 50.6557 135.925C50.592 136.018 50.6409 136.163 50.765 136.248C50.8891 136.333 51.0414 136.326 51.1052 136.233Z" fill="#28283D"/>
<path d="M69.9409 161.651C69.9409 161.651 69.8387 161.924 69.6004 162.332C69.4982 162.469 69.2939 162.707 69.2939 162.707L67.319 163.218L57.0356 164.103C57.0356 164.103 57.8188 162.4 57.955 162.23C58.0572 162.094 69.9409 161.651 69.9409 161.651Z" fill="#28283D"/>
<path d="M47.093 141.664L48.3529 144.967C48.3869 145.035 48.4551 145.069 48.5232 145.069H48.5912L55.129 162.231C55.5036 163.218 56.6272 163.933 57.6487 163.797L68.7152 162.469C69.7368 162.333 70.2475 161.447 69.873 160.46L63.5395 143.877H63.6076C63.6417 143.877 63.6757 143.843 63.6757 143.775L62.9607 141.902C62.9266 141.868 62.8926 141.834 62.8585 141.834H62.7904L62.518 141.119H62.5861C62.6202 141.119 62.6542 141.085 62.6542 141.017L61.9391 139.178C61.9051 139.144 61.871 139.11 61.8029 139.11H61.7348L61.3603 138.157H61.4284C61.4624 138.157 61.4965 138.123 61.4624 138.089L61.0879 137.067C61.0879 137.033 61.0198 136.999 60.9857 136.999H60.9176L60.1344 134.956C59.7599 133.969 58.6362 133.253 57.6147 133.39L46.5482 134.718C45.5267 134.854 45.0159 135.739 45.3905 136.727L47.2292 141.528H47.1611C47.1271 141.562 47.093 141.596 47.093 141.664Z" fill="#3F3D56"/>
<path d="M53.7668 134.819L51.9621 135.024C51.894 135.024 51.8599 135.092 51.894 135.16L51.9621 135.296C51.9961 135.364 52.0642 135.432 52.1323 135.398L53.937 135.194C54.0051 135.194 54.0392 135.126 54.0051 135.058L53.937 134.921C53.903 134.853 53.8349 134.819 53.7668 134.819Z" fill="#E5E7EB"/>
<path d="M51.5806 135.489C51.6443 135.396 51.5954 135.251 51.4713 135.166C51.3471 135.081 51.1948 135.088 51.1311 135.181C51.0673 135.274 51.1162 135.419 51.2404 135.504C51.3645 135.589 51.5168 135.582 51.5806 135.489Z" fill="#E5E7EB"/>
<path d="M46.4459 136.965L56.1163 162.265C56.3547 162.878 57.0697 163.355 57.7167 163.252L68.3065 161.993C68.9534 161.924 69.294 161.346 69.0556 160.733L59.3852 135.433C59.1468 134.82 58.4318 134.343 57.7848 134.445L56.1844 134.65L56.2525 134.854C56.4568 135.365 56.1844 135.842 55.6396 135.91L50.2596 136.557C49.7148 136.625 49.1359 136.25 48.9316 135.739L48.8635 135.535L47.161 135.739C46.5481 135.773 46.2076 136.352 46.4459 136.965Z" fill="#979797"/>
<path d="M59.5208 148.575C59.5208 148.575 60.0997 150.073 60.338 150.55C60.4061 150.72 60.5083 150.925 60.6104 151.265C61.019 152.729 57.3416 153.853 56.3881 151.027C56.1838 150.448 55.5369 148.848 55.5369 148.848L59.5208 148.575Z" fill="#FFC29A"/>
<path opacity="0.1" d="M59.5208 148.575C59.5208 148.575 59.657 148.882 59.8273 149.358C59.5889 150.278 58.0907 150.857 56.6605 150.584C56.4903 150.55 56.32 150.516 56.1498 150.448C55.8774 149.733 55.5369 148.848 55.5369 148.848L59.5208 148.575Z" fill="black"/>
<path d="M64.731 162.434L61.0194 162.877L57.7846 163.252C57.6825 163.013 55.8778 158.553 55.7416 158.314C54.9925 157.088 52.9154 153.888 53.5623 152.866C54.1412 151.947 55.8097 151.232 56.4226 151.027L56.4566 151.13C57.8868 152.696 60.8832 151.572 60.3725 150.517C60.3725 150.517 60.5427 150.551 60.6108 150.551C61.2919 150.653 63.8457 150.925 64.765 151.436C65.6503 151.947 67.0124 159.812 68.068 162.026L64.731 162.434Z" fill="#7BB9B9"/>
<g opacity="0.1">
<path opacity="0.1" d="M64.731 162.434L61.0194 162.877L57.7846 163.252C57.6825 163.013 55.8778 158.553 55.7416 158.314C54.9925 157.088 52.9154 153.888 53.5623 152.866C54.1412 151.947 55.8097 151.232 56.4226 151.027L56.4566 151.13C57.8868 152.696 60.8832 151.572 60.3725 150.517C60.3725 150.517 60.5427 150.551 60.6108 150.551C61.2919 150.653 63.8457 150.925 64.765 151.436C65.6503 151.947 67.0124 159.812 68.068 162.026L64.731 162.434Z" fill="black"/>
</g>
<path d="M59.866 148.953C60.5508 147.785 59.8435 146.098 58.286 145.185C56.7285 144.272 54.9107 144.479 54.2259 145.647C53.541 146.815 54.2484 148.502 55.8059 149.415C57.3634 150.328 59.1811 150.122 59.866 148.953Z" fill="#FFC29A"/>
<path d="M57.5462 144.966C57.41 145.171 56.5927 145.137 56.3884 145.034C56.1841 144.932 55.8436 145.137 55.6393 145.171C55.435 145.205 54.3454 145.613 54.2092 145.818C54.073 146.022 54.3113 146.941 54.2092 147.043C54.107 147.18 54.3113 147.997 54.3113 147.997C54.3113 147.997 53.5963 147.486 53.426 147.077C53.2558 146.669 53.0174 146.839 52.8812 146.465C52.745 146.056 52.5067 145.511 52.5407 145.307C52.5748 145.068 51.9278 144.081 52.1661 143.775C52.4045 143.468 52.8131 143.57 53.2217 143.025C53.6303 142.481 54.9583 142.31 54.9583 142.31C54.9583 142.31 55.8096 142.242 56.116 142.412C56.116 142.412 56.2863 142.378 56.3884 142.344C56.4906 142.344 57.1035 142.515 57.2738 142.617C57.444 142.719 58.2272 143.025 58.3634 143.332C58.4655 143.638 58.772 143.536 58.8741 143.809C58.9763 144.081 59.5892 144.319 59.7595 144.694C59.9297 145.068 59.9978 146.873 59.9978 146.873L59.9297 147.077C59.9297 147.077 59.0444 145.954 58.772 145.886C58.0229 145.545 57.6483 144.864 57.5462 144.966Z" fill="#2F2E41"/>
<path d="M60.2621 147.76C60.4093 147.677 60.4157 147.41 60.2764 147.165C60.1371 146.92 59.9049 146.789 59.7577 146.872C59.6105 146.956 59.6041 147.222 59.7434 147.468C59.8827 147.713 60.115 147.844 60.2621 147.76Z" fill="#FFC29A"/>
<path d="M54.6088 148.438C54.756 148.355 54.7624 148.088 54.6231 147.843C54.4838 147.597 54.2516 147.466 54.1044 147.55C53.9572 147.633 53.9508 147.9 54.0901 148.145C54.2294 148.391 54.4616 148.522 54.6088 148.438Z" fill="#FFC29A"/>
<path d="M60.2359 150.346C60.2359 150.346 59.6911 151.367 58.7717 151.878C58.7717 151.878 59.9295 152.457 60.2019 152.968C60.2019 152.968 62.279 151.776 60.2359 150.346Z" fill="#7BB9B9"/>
<path d="M56.3203 150.823C56.3203 150.823 57.9888 151.709 58.772 151.879C58.772 151.879 58.125 152.662 58.2271 153.173C58.2271 153.173 55.2988 152.117 56.3203 150.823Z" fill="#7BB9B9"/>
<path d="M58.7721 151.879C58.7721 151.879 59.8617 152.219 60.2022 152.969L60.1001 154.024C60.1001 154.024 59.6915 154.467 59.1466 154.126L58.2613 153.173C58.2273 153.173 57.9549 152.526 58.7721 151.879Z" fill="#2F2E41"/>
<path d="M60.0999 154.023L64.0838 162.502L61.9046 162.774L59.1465 154.126L60.0999 154.023Z" fill="#2F2E41"/>
<path d="M69.0552 160.731L65.6161 151.742C63.7433 150.652 60.2361 150.38 60.2361 150.38L64.7308 162.434L65.4458 162.366L67.9996 162.059L66.9441 158.859L68.4083 162.025C68.9871 161.855 69.2936 161.31 69.0552 160.731Z" fill="white"/>
<path opacity="0.1" d="M61.7003 150.55C60.9171 150.414 60.2361 150.38 60.2361 150.38L64.7308 162.434L65.548 162.332C65.548 162.332 62.211 150.618 61.7003 150.55Z" fill="#00B0D9"/>
<path d="M56.3884 160.085L57.7504 163.252L60.9852 162.877L56.2862 150.823C56.2862 150.823 53.6643 151.777 52.5747 153.037L56.0819 162.264C56.2862 162.775 56.7629 163.15 57.3078 163.252L56.3884 160.085Z" fill="white"/>
<path opacity="0.1" d="M56.2864 150.823C56.2864 150.823 55.7075 151.028 55.0946 151.334C54.686 151.538 60.2022 162.979 60.2022 162.979L60.6109 162.945L61.0195 162.911L56.2864 150.823Z" fill="#00B0D9"/>
<path d="M76.7509 156.34C76.7509 156.34 71.1326 156.544 70.6559 155.897C70.1791 155.216 68.102 147.044 67.5232 145.375C66.9443 143.707 65.3099 142.583 64.1181 141.051C62.9263 139.519 62.688 140.438 62.3475 140.847C62.007 141.255 63.1987 143.537 63.5052 143.877C63.8117 144.218 64.9694 147.384 64.9694 147.384L68.715 157.157L71.0985 158.587L72.9372 159.813L76.7509 156.34Z" fill="#F3B18D"/>
<path d="M45.8671 141.527C45.8671 141.527 45.2882 143.264 45.5266 144.524C45.7649 145.75 48.1144 146.533 48.1144 146.533L47.4675 144.728C47.4675 144.728 48.9316 142.311 47.9782 140.914C47.0248 139.518 45.8671 141.527 45.8671 141.527Z" fill="#F3B18D"/>
<path d="M47.0587 144.49C47.0587 144.49 46.4117 146.431 46.6841 147.793C46.9565 149.155 49.5444 150.006 49.5444 150.006L48.8293 148.031C48.8293 148.031 50.4638 145.341 49.4082 143.775C48.2845 142.209 47.0587 144.49 47.0587 144.49Z" fill="#F3B18D"/>
<path d="M48.4547 147.861C48.4547 147.861 47.8759 149.632 48.1142 150.892C48.3526 152.152 50.7021 152.935 50.7021 152.935L50.0551 151.13C50.0551 151.13 51.5533 148.678 50.5659 147.248C49.5784 145.818 48.4547 147.861 48.4547 147.861Z" fill="#F3B18D"/>
<path d="M49.9191 151.096C49.9191 151.096 49.4084 152.662 49.6127 153.752C49.851 154.842 52.4389 157.293 52.4389 157.293L51.3152 153.956C51.3152 153.956 52.6432 151.811 51.7579 150.551C50.8726 149.291 49.9191 151.096 49.9191 151.096Z" fill="#F3B18D"/>
<path d="M115.909 119.497C115.909 119.497 100.552 154.569 98.2369 154.876C95.9214 155.182 96.7386 153.548 95.4106 154.637C94.0827 155.727 93.5038 153.548 91.6991 154.808C89.8944 156.068 78.1129 155.182 75.491 155.318C72.869 155.455 69.1916 166.521 74.7078 170.131C74.7078 170.131 88.975 170.267 93.7081 169.994C97.9985 169.722 107.941 168.871 109.678 167.441C121.119 158.179 125.341 145.92 125.682 138.225C125.988 132.266 115.909 119.497 115.909 119.497Z" fill="#A679CF"/>
<path d="M129.019 110.065C128.406 112.584 127.589 119.19 133.752 119.497C139.881 119.803 142.23 113.81 142.877 108.464C143.524 103.118 136.442 88.4766 136.442 88.4766L124.626 95.1846C124.626 95.2186 129.632 107.545 129.019 110.065Z" fill="#F3B18D"/>
<path d="M88.5323 199.993L68.1699 220.321L82.9479 245.757C91.5287 249.196 100.45 251.818 109.576 253.691C101.472 236.019 88.5323 199.993 88.5323 199.993Z" fill="#91278D"/>
<path opacity="0.1" d="M88.5323 199.993L68.1699 220.321L82.9479 245.757C91.5287 249.196 100.45 251.818 109.576 253.691C101.472 236.019 88.5323 199.993 88.5323 199.993Z" fill="black"/>
<path d="M109.44 239.117C107.907 238.334 95.5809 207.45 82.4374 218.006C82.4374 218.006 75.8315 225.293 84.7869 239.117C86.5575 241.875 88.3282 245.008 89.8945 248.311C98.2369 251.171 106.852 253.35 115.637 254.815C112.674 246.438 110.053 239.424 109.44 239.117Z" fill="#91278D"/>
<path opacity="0.1" d="M138.791 93.7886C137.634 99.407 133.65 103.97 128.406 105.979C127.18 101.484 124.626 95.2187 124.626 95.2187L136.442 88.5107C136.408 88.5107 137.497 90.724 138.791 93.7886Z" fill="black"/>
<path d="M126.397 101.825C135.593 101.825 143.047 94.3702 143.047 85.1742C143.047 75.9783 135.593 68.5234 126.397 68.5234C117.201 68.5234 109.746 75.9783 109.746 85.1742C109.746 94.3702 117.201 101.825 126.397 101.825Z" fill="#F3B18D"/>
<path d="M147.202 104.889C147.202 104.889 159.46 109.894 161.06 111.767C162.661 113.64 168.654 118.543 170.39 119.496C172.127 120.416 187.552 135.058 188.335 138.361C189.118 141.663 191.468 152.832 189.118 156.441C186.769 160.051 185.339 161.175 181.423 159.744C177.473 158.314 166.509 143.23 166.509 143.23L151.833 139.62C151.833 139.62 147.985 176.872 146.385 181.673C144.784 186.508 132.628 189.437 125.92 191.956C119.212 194.476 102.425 194.476 100.314 199.924C98.2028 205.372 95.2745 228.05 95.2745 228.05C95.2745 228.05 91.2905 231.421 86.251 228.05C81.2115 224.679 69.6002 232.341 63.8116 227.846C61.9388 226.382 58.5678 227.437 58.5678 227.437C58.5678 227.437 55.6394 190.526 68.4425 188.211C81.2456 185.895 109.133 178.132 119.893 174.591C131.062 170.879 126.397 158.723 124.218 153.547C116.454 135.126 118.804 133.253 122.583 124.979C128.202 112.618 126.737 109.281 126.737 109.281L128.951 108.26C128.951 108.26 129.189 111.46 135.352 112.073C143.422 112.857 147.202 104.889 147.202 104.889Z" fill="#A679CF"/>
<path opacity="0.1" d="M99.4289 180.618C107.703 178.336 115.331 176.055 119.893 174.557C131.062 170.845 126.397 158.689 124.218 153.513C122.958 150.483 121.971 147.929 121.187 145.682L125.546 148.814C125.546 148.814 146.794 155.999 142.639 163.831C142.639 163.831 138.587 167.678 134.024 166.01C129.496 164.341 128.406 169.143 129.019 169.347C130.415 169.824 135.931 170.3 137.668 170.3C139.405 170.3 133.922 172.037 129.496 170.3C125.069 168.564 133.752 172.173 131.709 172.037C129.666 171.867 127.18 171.969 126.976 170.777C126.806 169.585 126.261 174.693 135.352 175.033C135.352 175.033 131.777 176.225 126.397 175.238C126.397 175.238 95.4791 181.809 99.4289 180.618Z" fill="black"/>
<path d="M128.95 108.226C128.95 108.226 125.579 108.873 124.319 110.61C123.06 112.347 123.366 112.04 121.017 113.13C118.667 114.219 116.999 114.39 116.862 115.956C116.726 117.522 114.411 118.918 114.138 121.711C114.002 123.004 118.395 154.808 127.656 159.847C136.952 164.887 144.273 163.355 151.356 149.836C158.438 136.318 169.13 114.9 167.394 111.121C165.657 107.341 164.057 110.712 162.048 110.065C160.039 109.452 157.485 108.158 156.225 109.554C154.965 110.916 151.186 107.58 149.926 108.737C148.666 109.895 145.431 107.035 144.954 108.295C144.478 109.554 146.418 125.422 140.596 134.956C134.807 144.525 128.95 108.226 128.95 108.226Z" fill="#91278D"/>
<path d="M100.757 195.532C98.6454 195.532 94.5593 197.848 93.027 203.5C91.4947 209.153 91.9374 217.12 91.2904 231.183C90.984 237.994 90.3711 243.748 89.5879 248.175C93.0951 249.401 96.6364 250.456 100.212 251.444C100.825 247.153 101.165 241.773 101.71 235.814C103.038 221.547 114.377 203.704 115.637 202.683C116.897 201.627 113.219 192.195 113.219 192.195C113.219 192.195 102.902 195.532 100.757 195.532Z" fill="#FFC29A"/>
<path opacity="0.1" d="M100.757 195.532C98.6454 195.532 94.5593 197.848 93.027 203.5C91.4947 209.153 91.9374 217.12 91.2904 231.183C90.984 237.994 90.3711 243.748 89.5879 248.175C93.0951 249.401 96.6364 250.456 100.212 251.444C100.825 247.153 101.165 241.773 101.71 235.814C103.038 221.547 114.377 203.704 115.637 202.683C116.897 201.627 113.219 192.195 113.219 192.195C113.219 192.195 102.902 195.532 100.757 195.532Z" fill="black"/>
<path d="M102.834 201.662C96.7389 205.884 100.757 218.415 99.2586 223.25C98.5095 225.667 97.5901 234.997 97.9988 238.981C98.2371 241.126 96.9772 245.621 95.479 250.116C99.1224 251.205 102.834 252.193 106.58 253.044C107.737 250.048 109.201 246.541 111.006 242.557C119.178 224.612 114.377 218.415 114.786 214.022C115.194 209.63 132.424 208.778 132.424 208.778C135.999 203.943 128.849 190.97 128.849 190.97C128.849 190.97 108.929 197.439 102.834 201.662Z" fill="#FFC29A"/>
<path d="M161.027 130.53C161.027 130.53 159.869 136.795 165.93 141.358C168.96 143.639 151.731 150.313 149.79 147.725C147.849 145.171 148.292 136.591 145.84 134.922C143.422 133.254 162.014 126.035 161.027 130.53Z" fill="#FFC29A"/>
<path d="M183.466 180.856C183.466 180.856 186.973 186.508 187.177 195.736C187.382 204.964 184.045 215.043 181.729 215.452C179.414 215.86 166.781 214.839 162.831 212.932C158.881 211.025 152.139 213.136 149.006 211.263C145.874 209.391 135.727 208.744 133.65 209.595C131.572 210.446 118.769 209.595 117.101 211.706C115.432 213.817 111.448 206.462 110.802 204.351C110.189 202.24 104.502 199.55 101.71 202.478C98.9178 205.373 102.663 195.566 100.757 195.566C98.8497 195.566 102.493 193.012 107.396 192.195C112.3 191.378 134.909 184.67 139.234 182.763C143.558 180.856 145.635 178.779 147.747 177.587C153.093 174.523 181.899 177.519 183.466 180.856Z" fill="#92D137"/>
<path opacity="0.1" d="M101.302 204.215C102.902 199.721 104.536 192.468 111.653 192.059C118.77 191.651 126.976 190.186 130.313 188.688C133.684 187.224 142.265 181.98 143.729 180.516C145.193 179.052 147.611 152.322 157.009 150.585C166.407 148.849 166.1 162.878 166.1 162.878C166.1 162.878 155.885 189.505 152.344 192.025C148.768 194.545 140.392 197.269 134.297 196.86C128.202 196.452 118.974 197.712 117.51 198.12C116.25 198.495 112.64 201.219 110.053 202.479C110.053 202.479 107.499 208.472 106.716 205.952C106.545 205.407 106.545 204.862 106.648 204.283C106.579 204.249 106.613 204.283 106.545 204.249C105.728 205.952 103.923 209.221 103.277 207.144C102.97 207.45 102.63 207.791 102.357 208.063C101.949 208.472 101.302 208.54 100.859 208.199C100.212 207.689 100.348 206.905 101.302 204.215Z" fill="black"/>
<path d="M101.71 202.478C103.31 197.983 104.945 190.731 112.062 190.322C119.178 189.913 127.384 188.449 130.721 186.951C134.092 185.487 142.673 180.243 144.137 178.779C145.602 177.315 148.019 150.585 157.417 148.848C166.815 147.112 166.509 161.14 166.509 161.14C166.509 161.14 156.293 187.768 152.752 190.288C149.177 192.808 140.8 195.532 134.705 195.123C128.61 194.714 119.382 195.974 117.918 196.383C116.658 196.757 113.049 199.482 110.461 200.741C110.461 200.741 107.907 206.734 107.124 204.215C106.954 203.67 106.954 203.125 107.056 202.546C106.988 202.512 107.022 202.546 106.954 202.512C106.137 204.215 104.332 207.483 103.685 205.406C103.379 205.713 103.038 206.053 102.766 206.326C102.357 206.734 101.71 206.802 101.267 206.462C100.655 205.917 100.757 205.168 101.71 202.478Z" fill="#FFC29A"/>
<path d="M147.747 138.668C147.747 138.668 142.707 144.491 142.707 148.441C142.707 152.39 142.537 162.878 142.707 165.636C142.877 168.394 142.911 173.979 145.022 176.124C147.1 178.303 149.415 182.73 157.451 183.513C165.521 184.296 183.466 182.559 183.466 180.823C183.466 179.086 183.296 179.086 183.466 176.09C183.636 173.093 183.466 171.697 182.683 170.744C181.899 169.79 182.614 161.993 180.844 159.439C179.073 156.885 177.643 150.381 172.774 145.955C167.905 141.562 159.698 137.885 156.566 141.835C153.433 145.785 149.347 148.236 149.313 145.955C149.279 143.742 147.747 138.668 147.747 138.668Z" fill="#92D137"/>
<path d="M105.115 78.023C105.115 78.023 106.92 85.8546 110.12 88.5447C110.12 88.5447 110.325 79.4191 111.517 77.7846C112.674 76.1502 105.115 78.023 105.115 78.023Z" fill="#2F2E41"/>
<path d="M166.543 161.14C166.543 161.14 156.327 187.768 152.786 190.288C149.245 192.808 140.834 195.532 134.739 195.123C128.644 194.714 119.416 195.974 117.952 196.383C116.488 196.792 111.925 200.367 109.371 201.218C106.818 202.069 102.629 206.462 102.629 206.462C102.629 206.462 99.1221 206.462 101.71 202.478C104.298 198.494 104.945 190.731 112.061 190.322C119.178 189.913 127.384 188.449 130.721 186.951C134.092 185.487 142.673 180.243 144.137 178.779C145.601 177.315 148.019 150.585 157.417 148.848C166.849 147.112 166.543 161.14 166.543 161.14Z" fill="#FFC29A"/>
<path opacity="0.1" d="M183.466 180.856C183.466 180.856 179.618 183.512 178.46 182.491C177.302 181.469 171.65 183.308 170.39 183.41C169.13 183.512 164.465 184.33 163.376 183.717C162.286 183.138 157.178 183.104 157.178 183.104C157.178 183.104 157.349 187.973 158.506 188.416C159.664 188.858 159.698 190.629 159.834 191.889C159.834 191.889 162.184 185.283 163.444 185.283C164.704 185.317 164.942 187.973 166.917 186.509C169.913 184.296 170.697 186.271 171.31 186.134C171.922 185.998 174.34 186.713 174.442 187.973C174.544 189.233 174.749 185.283 175.804 185.215C176.86 185.147 177.575 185.419 178.426 186.134C179.277 186.849 181.048 183.342 181.661 183.717C182.274 184.091 183.704 181.946 185.304 185.215C185.372 185.249 184.249 182.321 183.466 180.856Z" fill="black"/>
<path d="M145.499 71.792C145.499 71.792 159.63 93.3121 162.831 100.497C166.032 107.681 167.973 118.169 162.286 120.178C156.6 122.187 148.734 120.178 148.734 120.178C148.734 120.178 145.261 106.013 141.379 101.791C135.046 94.9124 138.383 80.509 138.383 80.509L145.499 71.792Z" fill="#29293A"/>
<path opacity="0.1" d="M144.171 178.745C144.171 178.745 148.836 182.423 149.619 184.227C150.403 186.032 149.619 192.025 149.619 192.025C149.619 192.025 142.299 194.919 138.519 195.021C134.739 195.124 135.454 191.378 134.501 189.335C133.547 187.292 132.356 186.134 132.356 186.134L144.171 178.745Z" fill="black"/>
<path d="M148.36 186.61C148.36 186.61 147.849 183.069 146.725 182.014C145.635 180.958 143.763 179.187 143.116 178.949C142.469 178.711 140.392 178.847 139.064 179.187C137.736 179.528 131.913 182.695 132.764 184.67C133.616 186.61 134.671 185.793 135.863 187.768C137.055 189.743 137.259 192.195 138.246 191.888C139.166 191.582 138.962 188.688 138.246 187.36C137.531 186.032 139.302 189.266 139.949 191.105C140.664 193.08 142.026 193.046 142.23 190.356C142.435 187.666 140.936 184.84 140.936 184.84C140.936 184.84 142.673 188.245 142.945 189.13C143.218 190.016 144.478 192.195 144.682 192.263C145.738 192.637 146.248 191.446 145.704 188.722C145.193 186.134 144.512 184.363 144.512 184.363C144.512 184.363 146.725 188.96 147.61 188.926C149.006 188.824 148.36 186.61 148.36 186.61Z" fill="#FFC29A"/>
<path opacity="0.1" d="M157.213 129.27C155.408 133.458 151.833 136.693 147.474 138.123C147.1 136.659 146.623 135.433 145.874 134.922C144.205 133.764 152.173 130.121 157.213 129.27Z" fill="black"/>
<path d="M148.325 135.534C156.788 135.534 163.648 128.674 163.648 120.212C163.648 111.749 156.788 104.889 148.325 104.889C139.863 104.889 133.002 111.749 133.002 120.212C133.002 128.674 139.863 135.534 148.325 135.534Z" fill="#FFC29A"/>
<path d="M171.582 104.447C171.582 104.447 176.383 102.438 180.605 109.725C184.828 117.012 189.084 125.661 188.846 130.666C188.607 135.672 189.901 141.086 184.998 144.695C175.906 151.403 177.643 145.41 175.566 141.631C174.34 139.349 169.607 134.854 169.369 132.88C169.13 130.871 167.939 121.234 171.344 117.25C174.749 113.232 174.102 111.019 172.331 110.236C170.595 109.419 171.582 104.447 171.582 104.447Z" fill="#313144"/>
<path d="M167.292 104.447C167.292 104.447 170.765 102.097 171.582 104.447C172.399 106.796 173.693 111.257 170.39 112.006C167.121 112.755 167.121 112.755 167.121 112.755C167.121 112.755 165.146 105.4 167.292 104.447Z" fill="#92D137"/>
<path d="M134.943 107.75C134.943 107.75 135.522 110.984 137.906 112.415C140.289 113.811 144.716 119.463 146.112 120.757C147.508 122.051 145.908 123.856 148.904 121.847C151.901 119.838 152.514 120.451 153.637 123.447C155.51 128.418 160.992 131.279 160.992 131.279C160.992 131.279 162.933 131.653 165.964 127.431C168.96 123.209 169.164 111.802 169.164 111.802C169.164 111.802 169.13 102.778 162.729 100.156C156.361 97.5684 141.856 92.4949 134.943 107.75Z" fill="#313144"/>
<path d="M150.845 125.966C152.237 125.966 153.365 124.503 153.365 122.698C153.365 120.892 152.237 119.429 150.845 119.429C149.454 119.429 148.325 120.892 148.325 122.698C148.325 124.503 149.454 125.966 150.845 125.966Z" fill="#FFC29A"/>
<path d="M181.729 142.447C181.729 142.447 185.713 143.605 186.122 150.619C186.531 157.634 179.312 155.352 179.312 155.352L181.729 142.447Z" fill="#F3B18D"/>
<path opacity="0.1" d="M181.729 142.447C181.729 142.447 185.713 143.605 186.122 150.619C186.531 157.634 179.312 155.352 179.312 155.352L181.729 142.447Z" fill="black"/>
<path opacity="0.1" d="M181.287 143.332C181.287 143.332 185.373 145.614 183.092 152.526C183.092 152.526 180.402 154.024 179.312 155.352C178.222 156.68 174.204 159.37 173.421 159.609C172.638 159.847 168.45 160.868 167.156 160.698C165.862 160.528 166.1 159.132 168.007 158.349C169.88 157.565 172.161 157.021 172.161 157.021L174.511 154.773C174.511 154.773 172.332 155.931 171.14 156.169C169.948 156.408 165.147 157.702 161.844 157.123C159.256 156.646 160.039 154.433 161.844 154.603C163.649 154.773 168.995 152.73 169.301 152.73C169.608 152.73 173.387 151.232 173.387 151.232C173.387 151.232 169.437 151.641 168.109 151.47C166.781 151.3 162.831 152.288 159.597 152.083C156.362 151.879 156.362 149.836 158.166 149.291C159.971 148.746 165.555 148.202 166.339 148.031C167.122 147.861 170.357 146.737 172.229 146.942C172.229 146.942 168.892 146.601 167.054 146.363C165.215 146.124 157.656 146.601 157.588 145.75C157.519 144.899 157.145 143.434 159.869 143.4C162.593 143.366 162.321 142.856 162.321 142.856C162.321 142.856 165.624 139.314 166.475 138.906C167.326 138.497 169.71 138.735 173.251 140.166C176.894 141.528 179.652 143.196 181.287 143.332Z" fill="black"/>
<path d="M181.73 142.448C181.73 142.448 185.816 144.729 183.534 151.641C183.534 151.641 180.844 153.139 179.755 154.467C178.665 155.795 174.647 158.485 173.864 158.724C173.081 158.962 168.892 159.984 167.598 159.813C166.305 159.643 166.543 158.247 168.45 157.464C170.323 156.681 172.604 156.136 172.604 156.136L174.953 153.889C174.953 153.889 172.774 155.046 171.582 155.285C170.391 155.523 165.589 156.817 162.287 156.238C159.699 155.761 160.482 153.548 162.287 153.718C164.091 153.889 169.437 151.846 169.744 151.846C170.05 151.846 173.83 150.347 173.83 150.347C173.83 150.347 169.88 150.756 168.552 150.586C167.224 150.415 163.274 151.403 160.039 151.199C156.804 150.994 156.804 148.951 158.609 148.406C160.414 147.862 165.998 147.317 166.781 147.147C167.564 146.976 170.799 145.853 172.672 146.057C172.672 146.057 169.335 145.716 167.496 145.478C165.658 145.24 158.098 145.716 158.03 144.865C157.962 144.014 157.588 142.55 160.312 142.516C163.036 142.482 162.763 141.971 162.763 141.971C162.763 141.971 166.066 138.43 166.917 138.021C167.769 137.612 170.152 137.851 173.694 139.281C177.235 140.711 180.061 142.311 181.73 142.448Z" fill="#F3B18D"/>
<path opacity="0.1" d="M173.012 141.596C173.012 141.596 170.493 140.642 169.641 140.812C168.79 140.983 162.423 141.357 162.865 141.902C162.865 141.902 170.016 141.357 173.012 141.596Z" fill="black"/>
<path d="M107.09 79.6914C111.449 79.0104 121.323 74.6859 125.818 77.5121C130.347 80.3724 134.024 84.4925 138.383 82.824C142.741 81.1556 146.759 75.435 146.759 72.6088C146.759 69.7826 143.422 69.9188 143.082 67.9098C142.741 65.9008 132.083 55.5153 118.974 59.1247C102.97 63.4832 102.732 80.3724 107.09 79.6914Z" fill="#29293A"/>
<path d="M136.925 88.7365C138.464 88.6305 139.599 86.9172 139.46 84.9098C139.322 82.9024 137.962 81.3611 136.424 81.4672C134.886 81.5732 133.751 83.2865 133.889 85.2939C134.028 87.3012 135.387 88.8426 136.925 88.7365Z" fill="#F3B18D"/>
<g opacity="0.1">
<path opacity="0.1" d="M130.449 133.288C131.436 134.854 132.356 136.387 133.343 137.885C134.331 139.349 135.386 140.813 136.578 141.937C137.191 142.482 137.838 142.958 138.519 143.163C138.689 143.231 138.825 143.265 139.03 143.265C139.234 143.299 139.438 143.299 139.642 143.299C140.051 143.299 140.426 143.265 140.834 143.197C142.401 142.89 143.763 141.665 144.648 140.03C144.546 140.949 144.171 141.869 143.592 142.652C143.013 143.435 142.162 144.116 141.209 144.457C140.732 144.627 140.221 144.763 139.711 144.797C139.472 144.831 139.2 144.831 138.961 144.831C138.723 144.831 138.417 144.797 138.144 144.729C137.055 144.491 136.169 143.878 135.42 143.197C133.956 141.835 133.003 140.2 132.185 138.532C131.402 136.897 130.789 135.127 130.449 133.288Z" fill="black"/>
</g>
<g opacity="0.1">
<path opacity="0.1" d="M126.397 138.701C127.691 141.085 128.848 143.468 130.074 145.784C131.3 148.099 132.526 150.415 134.058 152.321C134.807 153.275 135.693 154.092 136.51 154.399C136.612 154.433 136.714 154.467 136.816 154.467C136.918 154.501 137.055 154.501 137.191 154.501C137.463 154.535 137.702 154.535 137.94 154.501C138.451 154.433 138.927 154.296 139.404 154.024C140.358 153.513 141.209 152.56 141.924 151.504C142.639 150.449 143.218 149.257 143.763 147.997C143.763 149.359 143.49 150.721 143.048 152.049C142.571 153.377 141.822 154.671 140.562 155.658C139.949 156.135 139.166 156.544 138.349 156.68C137.94 156.748 137.531 156.816 137.123 156.816C136.918 156.816 136.714 156.816 136.51 156.782C136.271 156.748 136.067 156.714 135.829 156.646C134.943 156.408 134.228 155.965 133.615 155.488C133.003 155.011 132.492 154.433 132.049 153.888C130.244 151.606 129.121 149.087 128.201 146.533C127.282 144.047 126.635 141.391 126.397 138.701Z" fill="black"/>
</g>
<path d="M262.838 148.577C261.408 140.609 244.927 137.646 244.927 137.646L222.215 200.061C222.215 200.061 190.446 199.142 163.853 202.683C137.259 206.225 117.305 210.924 117.305 210.924L120.063 255.462C128.951 256.688 138.008 257.199 147.1 256.96C182.512 256.075 224.94 249.98 253.61 227.54C258.071 195.941 263.689 153.514 262.838 148.577Z" fill="#29293A"/>
<path opacity="0.15" d="M135.284 224.919L117.339 210.958C117.339 210.958 137.259 206.225 163.886 202.718C190.48 199.176 222.249 200.096 222.249 200.096L239.241 207.689C182.955 211.094 135.284 224.919 135.284 224.919Z" fill="white"/>
<path opacity="0.1" d="M260.965 144.968L239.206 207.689L222.215 200.096L244.927 137.681C244.927 137.681 256.436 139.758 260.965 144.968Z" fill="white"/>
<path opacity="0.1" d="M135.284 224.919L117.339 210.958L120.097 255.496C125.409 256.245 130.789 256.722 136.203 256.927L135.284 224.919Z" fill="white"/>
</svg>
