<svg width="919" height="766" viewBox="0 0 919 766" fill="none" xmlns="http://www.w3.org/2000/svg">
<g clip-path="url(#clip0_209_43)">
<g opacity="0.5">
<path opacity="0.5" d="M632.59 86.1099H162.9V717.25H632.59V86.1099Z" fill="url(#paint0_linear_209_43)"/>
</g>
<path d="M624.03 94.6699H169.02V703.79H624.03V94.6699Z" fill="#F2F2F2"/>
<path d="M361.05 120.36H204.49V125.25H361.05V120.36Z" fill="#E0E0E0"/>
<path opacity="0.7" d="M361.05 142.37H204.49V147.26H361.05V142.37Z" fill="#01BF71"/>
<path d="M540.85 120.36H384.29V125.25H540.85V120.36Z" fill="#E0E0E0"/>
<path d="M565.31 259.8H408.75V264.69H565.31V259.8Z" fill="#E0E0E0"/>
<path d="M568.98 273.25H412.42V278.14H568.98V273.25Z" fill="#E0E0E0"/>
<path d="M576.32 286.7H419.76V291.59H576.32V286.7Z" fill="#E0E0E0"/>
<path d="M565.31 476.29H408.75V481.18H565.31V476.29Z" fill="#E0E0E0"/>
<path d="M568.98 489.75H412.42V494.64H568.98V489.75Z" fill="#E0E0E0"/>
<path d="M576.32 503.2H419.76V508.09H576.32V503.2Z" fill="#E0E0E0"/>
<g opacity="0.5">
<path opacity="0.5" d="M372.06 209.65H205.71V378.44H372.06V209.65Z" fill="url(#paint1_linear_209_43)"/>
</g>
<path d="M370.48 213.32H206.76V374.77H370.48V213.32Z" fill="#F5F5F5"/>
<g opacity="0.5">
<path opacity="0.5" d="M365.23 223.1H212.53V328.29H365.23V223.1Z" fill="url(#paint2_linear_209_43)"/>
</g>
<path d="M364.18 224.32H213.58V325.84H364.18V224.32Z" fill="white"/>
<path opacity="0.4" d="M200.82 322.18L238.74 263.46L254.64 289.15L288.88 253.68L318.24 289.15L343.93 236.56L409.98 341.75L195.93 334.41L200.82 322.18Z" fill="#01BF71"/>
<path opacity="0.4" d="M230.17 250.01C236.251 250.01 241.18 245.081 241.18 239C241.18 232.92 236.251 227.99 230.17 227.99C224.089 227.99 219.16 232.92 219.16 239C219.16 245.081 224.089 250.01 230.17 250.01Z" fill="#01BF71"/>
<g opacity="0.5">
<path opacity="0.5" d="M372.06 426.14H205.71V594.93H372.06V426.14Z" fill="url(#paint3_linear_209_43)"/>
</g>
<path d="M370.48 429.81H206.76V591.26H370.48V429.81Z" fill="#F5F5F5"/>
<g opacity="0.5">
<path opacity="0.5" d="M365.23 439.6H212.53V544.79H365.23V439.6Z" fill="url(#paint4_linear_209_43)"/>
</g>
<path d="M364.18 440.82H213.58V542.34H364.18V440.82Z" fill="white"/>
<path opacity="0.4" d="M200.82 538.67L238.74 479.96L254.64 505.65L288.88 470.18L318.24 505.65L343.93 453.05L409.98 558.24L195.93 550.9L200.82 538.67Z" fill="#BDBDBD"/>
<path opacity="0.4" d="M230.17 466.51C236.251 466.51 241.18 461.581 241.18 455.5C241.18 449.42 236.251 444.49 230.17 444.49C224.089 444.49 219.16 449.42 219.16 455.5C219.16 461.581 224.089 466.51 230.17 466.51Z" fill="#BDBDBD"/>
<g opacity="0.5">
<path opacity="0.5" d="M354.882 54.9246L231.86 673.959L692.541 765.511L815.563 146.476L354.882 54.9246Z" fill="url(#paint5_linear_209_43)"/>
</g>
<path d="M359.203 64.5155L240.474 661.952L686.757 750.642L805.486 153.206L359.203 64.5155Z" fill="white"/>
<path d="M702.873 161.478L386.157 98.5371L385.204 103.333L701.92 166.275L702.873 161.478Z" fill="#E0E0E0"/>
<path d="M612.751 614.971L296.034 552.029L295.081 556.826L611.797 619.767L612.751 614.971Z" fill="#E0E0E0"/>
<path d="M620.67 580.941L303.953 518L303 522.796L619.716 585.738L620.67 580.941Z" fill="#E0E0E0"/>
<path d="M535.285 628.262L290.551 579.625L289.598 584.422L534.332 633.058L535.285 628.262Z" fill="#E0E0E0"/>
<path opacity="0.7" d="M376.252 625.333L285.075 607.213L284.122 612.01L375.299 630.129L376.252 625.333Z" fill="#01BF71"/>
<path opacity="0.7" d="M539.034 157.614L380.681 126.144L379.728 130.94L538.081 162.41L539.034 157.614Z" fill="#01BF71"/>
<path d="M660.725 210.473L375.198 153.73L374.245 158.527L659.771 215.27L660.725 210.473Z" fill="#E0E0E0"/>
<path opacity="0.7" d="M439.297 195.154L369.718 181.326L368.765 186.122L438.344 199.95L439.297 195.154Z" fill="#3AD29F"/>
<path opacity="0.7" d="M420.532 283.828L350.953 270L350 274.796L419.579 288.624L420.532 283.828Z" fill="#3AD29F"/>
<path d="M680.941 271.855L364.225 208.914L363.271 213.71L679.988 276.652L680.941 271.855Z" fill="#E0E0E0"/>
<g opacity="0.5">
<path opacity="0.5" d="M392.144 325.459L359.719 488.619L644.039 545.122L676.464 381.963L392.144 325.459Z" fill="url(#paint6_linear_209_43)"/>
</g>
<path d="M674.487 382.812L393.757 327.022L362.047 486.582L642.778 542.372L674.487 382.812Z" fill="white"/>
<path d="M675.458 299.448L358.742 236.506L357.789 241.303L674.505 304.244L675.458 299.448Z" fill="#E0E0E0"/>
<g opacity="0.5">
<path opacity="0.5" d="M132.32 645.09H128.65V665.88H132.32V645.09Z" fill="#47E6B1"/>
<path opacity="0.5" d="M140.89 657.32V653.65H120.1V657.32H140.89Z" fill="#47E6B1"/>
</g>
<path opacity="0.5" d="M558.51 8.33019C557.499 7.88984 556.686 7.09308 556.225 6.09171C555.764 5.09034 555.687 3.95435 556.01 2.90019C556.063 2.73806 556.096 2.57022 556.11 2.40019V2.40019C556.126 1.92839 555.994 1.46343 555.731 1.07113C555.468 0.678837 555.089 0.379074 554.647 0.214285C554.204 0.0494965 553.721 0.0280297 553.266 0.152922C552.811 0.277814 552.406 0.542739 552.11 0.910193V0.910193C552.01 1.04656 551.926 1.19424 551.86 1.3502C551.42 2.36083 550.623 3.17415 549.621 3.63519C548.62 4.09623 547.484 4.17275 546.43 3.8502C546.268 3.79724 546.1 3.76367 545.93 3.7502V3.7502C545.458 3.73395 544.993 3.86651 544.601 4.12912C544.209 4.39173 543.909 4.77107 543.744 5.21345C543.579 5.65584 543.558 6.13885 543.683 6.59411C543.808 7.04937 544.073 7.45382 544.44 7.7502V7.7502C544.576 7.85048 544.724 7.93439 544.88 8.0002C545.891 8.44054 546.704 9.23731 547.165 10.2387C547.626 11.24 547.703 12.376 547.38 13.4302C547.327 13.5923 547.293 13.7602 547.28 13.9302C547.264 14.402 547.396 14.867 547.659 15.2593C547.922 15.6516 548.301 15.9513 548.743 16.1161C549.186 16.2809 549.669 16.3024 550.124 16.1775C550.579 16.0526 550.984 15.7876 551.28 15.4202V15.4202C551.38 15.2838 551.464 15.1361 551.53 14.9802C551.97 13.9696 552.767 13.1562 553.768 12.6952C554.77 12.2342 555.906 12.1576 556.96 12.4802C557.122 12.5331 557.29 12.5667 557.46 12.5802C557.932 12.5964 558.397 12.4639 558.789 12.2013C559.181 11.9387 559.481 11.5593 559.646 11.1169C559.811 10.6745 559.832 10.1915 559.707 9.73627C559.582 9.28101 559.317 8.87657 558.95 8.58019C558.814 8.4799 558.666 8.396 558.51 8.33019V8.33019Z" fill="#4D8AF0"/>
<path opacity="0.5" d="M145.4 112.17C144.389 111.73 143.576 110.933 143.115 109.932C142.654 108.93 142.578 107.794 142.9 106.74C142.953 106.578 142.987 106.41 143 106.24V106.24C143.016 105.768 142.884 105.303 142.621 104.911C142.359 104.519 141.979 104.219 141.537 104.054C141.094 103.889 140.611 103.868 140.156 103.993C139.701 104.118 139.296 104.383 139 104.75V104.75C138.9 104.886 138.816 105.034 138.75 105.19C138.31 106.201 137.513 107.014 136.512 107.475C135.51 107.936 134.374 108.013 133.32 107.69C133.158 107.637 132.99 107.604 132.82 107.59C132.348 107.574 131.883 107.706 131.491 107.969C131.099 108.232 130.799 108.611 130.634 109.053C130.469 109.496 130.448 109.979 130.573 110.434C130.698 110.889 130.963 111.294 131.33 111.59V111.59C131.466 111.69 131.614 111.774 131.77 111.84C132.781 112.28 133.594 113.077 134.055 114.079C134.516 115.08 134.593 116.216 134.27 117.27C134.217 117.432 134.184 117.6 134.17 117.77V117.77C134.154 118.242 134.286 118.707 134.549 119.099C134.812 119.491 135.191 119.791 135.633 119.956C136.076 120.121 136.559 120.142 137.014 120.017C137.469 119.892 137.874 119.627 138.17 119.26V119.26C138.27 119.124 138.354 118.976 138.42 118.82C138.86 117.809 139.657 116.996 140.659 116.535C141.66 116.074 142.796 115.997 143.85 116.32C144.012 116.373 144.18 116.407 144.35 116.42V116.42C144.822 116.436 145.287 116.304 145.679 116.041C146.071 115.779 146.371 115.399 146.536 114.957C146.701 114.514 146.722 114.031 146.597 113.576C146.473 113.121 146.208 112.716 145.84 112.42C145.704 112.32 145.556 112.236 145.4 112.17Z" fill="#FDD835"/>
<path opacity="0.5" d="M112.7 417.23C111.689 416.79 110.876 415.993 110.415 414.992C109.954 413.99 109.877 412.854 110.2 411.8C110.253 411.638 110.286 411.47 110.3 411.3V411.3C110.316 410.828 110.184 410.363 109.921 409.971C109.658 409.579 109.279 409.279 108.837 409.114C108.394 408.949 107.911 408.928 107.456 409.053C107.001 409.178 106.596 409.443 106.3 409.81C106.2 409.946 106.116 410.094 106.05 410.25C105.61 411.261 104.813 412.074 103.811 412.535C102.81 412.996 101.674 413.073 100.62 412.75C100.458 412.697 100.29 412.664 100.12 412.65V412.65C99.6481 412.634 99.1832 412.766 98.7909 413.029C98.3986 413.292 98.0988 413.671 97.934 414.113C97.7692 414.556 97.7478 415.039 97.8727 415.494C97.9975 415.949 98.2625 416.354 98.6299 416.65C98.7663 416.75 98.914 416.834 99.0699 416.9C100.081 417.34 100.894 418.137 101.355 419.139C101.816 420.14 101.892 421.276 101.57 422.33C101.517 422.492 101.483 422.66 101.47 422.83V422.83C101.454 423.302 101.586 423.767 101.849 424.159C102.111 424.551 102.491 424.851 102.933 425.016C103.376 425.181 103.859 425.202 104.314 425.077C104.769 424.952 105.174 424.688 105.47 424.32V424.32C105.57 424.184 105.654 424.036 105.72 423.88C106.16 422.869 106.957 422.056 107.958 421.595C108.96 421.134 110.096 421.058 111.15 421.38C111.312 421.433 111.48 421.467 111.65 421.48C112.122 421.496 112.587 421.364 112.979 421.101C113.371 420.839 113.671 420.459 113.836 420.017C114.001 419.574 114.022 419.091 113.897 418.636C113.772 418.181 113.507 417.776 113.14 417.48V417.48C113.004 417.38 112.856 417.296 112.7 417.23V417.23Z" fill="#FDD835"/>
<path opacity="0.5" d="M337.81 35.9598C341.864 35.9598 345.15 32.6736 345.15 28.6198C345.15 24.566 341.864 21.2798 337.81 21.2798C333.756 21.2798 330.47 24.566 330.47 28.6198C330.47 32.6736 333.756 35.9598 337.81 35.9598Z" fill="#F55F44"/>
<path opacity="0.5" d="M7.34 324.8C11.3938 324.8 14.68 321.514 14.68 317.46C14.68 313.406 11.3938 310.12 7.34 310.12C3.28623 310.12 0 313.406 0 317.46C0 321.514 3.28623 324.8 7.34 324.8Z" fill="#F55F44"/>
<path opacity="0.5" d="M863.76 127.7C867.814 127.7 871.1 124.414 871.1 120.36C871.1 116.306 867.814 113.02 863.76 113.02C859.706 113.02 856.42 116.306 856.42 120.36C856.42 124.414 859.706 127.7 863.76 127.7Z" fill="#F55F44"/>
<path opacity="0.5" d="M822.17 346.64C826.224 346.64 829.51 343.354 829.51 339.3C829.51 335.246 826.224 331.96 822.17 331.96C818.116 331.96 814.83 335.246 814.83 339.3C814.83 343.354 818.116 346.64 822.17 346.64Z" fill="#4D8AF0"/>
<path opacity="0.5" d="M37.6798 152.56C41.7336 152.56 45.0198 149.274 45.0198 145.22C45.0198 141.166 41.7336 137.88 37.6798 137.88C33.6261 137.88 30.3398 141.166 30.3398 145.22C30.3398 149.274 33.6261 152.56 37.6798 152.56Z" fill="#47E6B1"/>
<path opacity="0.5" d="M853.29 654.68C857.344 654.68 860.63 651.394 860.63 647.34C860.63 643.286 857.344 640 853.29 640C849.236 640 845.95 643.286 845.95 647.34C845.95 651.394 849.236 654.68 853.29 654.68Z" fill="#47E6B1"/>
<path opacity="0.5" d="M910.8 438.31C914.854 438.31 918.14 435.024 918.14 430.97C918.14 426.916 914.854 423.63 910.8 423.63C906.746 423.63 903.46 426.916 903.46 430.97C903.46 435.024 906.746 438.31 910.8 438.31Z" fill="#47E6B1"/>
<path d="M730.9 601.05H544.42V754.12H730.9V601.05Z" fill="url(#paint7_linear_209_43)"/>
<path d="M582.89 571.77C582.89 557.302 588.637 543.427 598.867 533.197C609.097 522.967 622.972 517.22 637.44 517.22C651.907 517.22 665.782 522.967 676.013 533.197C686.243 543.427 691.99 557.302 691.99 571.77V606.68H707.26V571.77C707.26 553.251 699.903 535.491 686.809 522.396C673.714 509.301 655.954 501.945 637.435 501.945C618.916 501.945 601.156 509.301 588.061 522.396C574.966 535.491 567.61 553.251 567.61 571.77V606.68H582.88L582.89 571.77Z" fill="url(#paint8_linear_209_43)"/>
<path d="M585.07 571.02C585.07 557.13 590.588 543.81 600.409 533.989C610.23 524.167 623.551 518.65 637.44 518.65C651.33 518.65 664.65 524.167 674.471 533.989C684.293 543.81 689.81 557.13 689.81 571.02V604.54H704.47V571.02C704.47 553.242 697.408 536.193 684.838 523.622C672.267 511.052 655.218 503.99 637.44 503.99C619.663 503.99 602.613 511.052 590.043 523.622C577.472 536.193 570.41 553.242 570.41 571.02V604.54H585.07V571.02Z" fill="#F5F5F5"/>
<path d="M728.56 602.45H546.32V751.18H728.56V602.45Z" fill="#01BF71"/>
<path d="M728.56 602.45H546.32V751.18H728.56V602.45Z" fill="#F5F5F5"/>
<path d="M728.56 631.77H546.32V721.84H728.56V631.77Z" fill="#01BF71"/>
<path d="M650.8 659.77C650.803 657.589 650.271 655.441 649.252 653.512C648.233 651.584 646.757 649.934 644.954 648.707C643.15 647.481 641.074 646.714 638.906 646.475C636.738 646.236 634.544 646.531 632.516 647.335C630.489 648.139 628.689 649.427 627.274 651.087C625.859 652.746 624.871 654.727 624.398 656.857C623.925 658.986 623.98 661.199 624.56 663.301C625.139 665.404 626.224 667.333 627.72 668.92V697.43C627.72 700.008 628.744 702.48 630.567 704.303C632.39 706.126 634.862 707.15 637.44 707.15C640.018 707.15 642.49 706.126 644.313 704.303C646.136 702.48 647.16 700.008 647.16 697.43V668.95C649.507 666.471 650.81 663.184 650.8 659.77Z" fill="url(#paint9_linear_209_43)"/>
<path opacity="0.2" d="M648.96 662.15C648.962 660.269 648.504 658.416 647.625 656.753C646.747 655.09 645.474 653.668 643.919 652.61C642.364 651.552 640.573 650.891 638.704 650.685C636.834 650.478 634.942 650.733 633.194 651.426C631.446 652.119 629.893 653.23 628.673 654.662C627.453 656.093 626.602 657.801 626.194 659.638C625.786 661.474 625.834 663.382 626.334 665.195C626.833 667.008 627.769 668.672 629.06 670.04V694.62C629.06 696.843 629.943 698.974 631.514 700.546C633.086 702.117 635.217 703 637.44 703C639.662 703 641.794 702.117 643.365 700.546C644.937 698.974 645.82 696.843 645.82 694.62V670.04C647.837 667.909 648.961 665.085 648.96 662.15V662.15Z" fill="black"/>
</g>
<defs>
<linearGradient id="paint0_linear_209_43" x1="397.74" y1="717.25" x2="397.74" y2="86.1099" gradientUnits="userSpaceOnUse">
<stop stop-color="#808080" stop-opacity="0.25"/>
<stop offset="0.54" stop-color="#808080" stop-opacity="0.12"/>
<stop offset="1" stop-color="#808080" stop-opacity="0.1"/>
</linearGradient>
<linearGradient id="paint1_linear_209_43" x1="48260.9" y1="64086.5" x2="48260.9" y2="35596.5" gradientUnits="userSpaceOnUse">
<stop stop-color="#808080" stop-opacity="0.25"/>
<stop offset="0.54" stop-color="#808080" stop-opacity="0.12"/>
<stop offset="1" stop-color="#808080" stop-opacity="0.1"/>
</linearGradient>
<linearGradient id="paint2_linear_209_43" x1="44324.5" y1="34755.9" x2="44324.5" y2="23691" gradientUnits="userSpaceOnUse">
<stop stop-color="#808080" stop-opacity="0.25"/>
<stop offset="0.54" stop-color="#808080" stop-opacity="0.12"/>
<stop offset="1" stop-color="#808080" stop-opacity="0.1"/>
</linearGradient>
<linearGradient id="paint3_linear_209_43" x1="48260.9" y1="100846" x2="48260.9" y2="72354.3" gradientUnits="userSpaceOnUse">
<stop stop-color="#808080" stop-opacity="0.25"/>
<stop offset="0.54" stop-color="#808080" stop-opacity="0.12"/>
<stop offset="1" stop-color="#808080" stop-opacity="0.1"/>
</linearGradient>
<linearGradient id="paint4_linear_209_43" x1="44324.5" y1="57746" x2="44324.5" y2="46681.1" gradientUnits="userSpaceOnUse">
<stop stop-color="#808080" stop-opacity="0.25"/>
<stop offset="0.54" stop-color="#808080" stop-opacity="0.12"/>
<stop offset="1" stop-color="#808080" stop-opacity="0.1"/>
</linearGradient>
<linearGradient id="paint5_linear_209_43" x1="346361" y1="433041" x2="404143" y2="142286" gradientUnits="userSpaceOnUse">
<stop stop-color="#808080" stop-opacity="0.25"/>
<stop offset="0.54" stop-color="#808080" stop-opacity="0.12"/>
<stop offset="1" stop-color="#808080" stop-opacity="0.1"/>
</linearGradient>
<linearGradient id="paint6_linear_209_43" x1="78638.3" y1="179470" x2="88037.6" y2="132173" gradientUnits="userSpaceOnUse">
<stop stop-color="#808080" stop-opacity="0.25"/>
<stop offset="0.54" stop-color="#808080" stop-opacity="0.12"/>
<stop offset="1" stop-color="#808080" stop-opacity="0.1"/>
</linearGradient>
<linearGradient id="paint7_linear_209_43" x1="119455" y1="116034" x2="119455" y2="92603.8" gradientUnits="userSpaceOnUse">
<stop stop-color="#808080" stop-opacity="0.25"/>
<stop offset="0.54" stop-color="#808080" stop-opacity="0.12"/>
<stop offset="1" stop-color="#808080" stop-opacity="0.1"/>
</linearGradient>
<linearGradient id="paint8_linear_209_43" x1="109267" y1="71078.7" x2="109267" y2="60109.8" gradientUnits="userSpaceOnUse">
<stop stop-color="#808080" stop-opacity="0.25"/>
<stop offset="0.54" stop-color="#808080" stop-opacity="0.12"/>
<stop offset="1" stop-color="#808080" stop-opacity="0.1"/>
</linearGradient>
<linearGradient id="paint9_linear_209_43" x1="21422.2" y1="47696.2" x2="21422.2" y2="44005.3" gradientUnits="userSpaceOnUse">
<stop stop-color="#808080" stop-opacity="0.25"/>
<stop offset="0.54" stop-color="#808080" stop-opacity="0.12"/>
<stop offset="1" stop-color="#808080" stop-opacity="0.1"/>
</linearGradient>
<clipPath id="clip0_209_43">
<rect width="918.14" height="765.54" fill="white"/>
</clipPath>
</defs>
</svg>
