<svg width="1080" height="1080" viewBox="0 0 1080 1080" fill="none" xmlns="http://www.w3.org/2000/svg">
<path d="M209.09 570.61C210.18 569.437 211.658 568.698 213.25 568.53C214.326 568.416 215.413 568.524 216.445 568.847C217.477 569.171 218.432 569.703 219.25 570.41L247.51 592.26C252.106 596.165 258.056 598.102 264.07 597.65C279.24 596.36 284.69 580.83 275.07 567.36L258.19 541.49C255 535.41 255.74 531.2 258.02 529.01L316.02 610.76C307.64 621.362 297.441 630.389 285.9 637.42L209.09 570.61Z" fill="url(#paint0_linear_185_349)"/>
<path d="M258.16 528.9C259.258 527.982 260.6 527.405 262.021 527.24C263.442 527.074 264.881 527.328 266.16 527.97C267.398 528.561 268.476 529.443 269.3 530.54L292 559.68C295.375 564.099 300.19 567.198 305.61 568.44C315.76 570.68 322.21 564.87 326.22 553.7C333.15 531.3 331.22 529.6 332.67 511.39C333.01 507.13 336.22 507.76 337.25 511.91L337.46 512.76C341.399 528.873 341.779 545.652 338.573 561.927C335.368 578.202 328.654 593.583 318.9 607L258.16 528.9Z" fill="url(#paint1_linear_185_349)"/>
<path d="M179.2 638.71C187.1 639.12 195.5 642.17 214.07 644.04C219.817 644.595 225.617 644.107 231.19 642.6C247.67 637.37 247.78 621.97 241.19 612.34L210.13 580.83C206.92 576.53 207.13 572.83 209.07 570.65L281.77 639.84C272.211 645.117 261.952 649.013 251.3 651.41C225.941 657.173 199.374 654.1 176 642.7C171.78 640.67 174.56 638.47 179.2 638.71Z" fill="url(#paint2_linear_185_349)"/>
<path d="M307.5 559.21C313.41 559.21 318.2 554.42 318.2 548.51C318.2 542.601 313.41 537.81 307.5 537.81C301.591 537.81 296.8 542.601 296.8 548.51C296.8 554.42 301.591 559.21 307.5 559.21Z" fill="url(#paint3_linear_185_349)"/>
<path d="M260.2 588.55C266.109 588.55 270.9 583.759 270.9 577.85C270.9 571.94 266.109 567.15 260.2 567.15C254.291 567.15 249.5 571.94 249.5 577.85C249.5 583.759 254.291 588.55 260.2 588.55Z" fill="url(#paint4_linear_185_349)"/>
<path d="M220.46 630.9C226.369 630.9 231.16 626.109 231.16 620.2C231.16 614.291 226.369 609.5 220.46 609.5C214.551 609.5 209.76 614.291 209.76 620.2C209.76 626.109 214.551 630.9 220.46 630.9Z" fill="url(#paint5_linear_185_349)"/>
<path d="M115.87 564.33C116.768 564.115 117.605 563.695 118.314 563.104C119.024 562.512 119.587 561.765 119.96 560.92L136.96 567.56C136.724 568.502 136.815 569.496 137.216 570.38C137.617 571.265 138.306 571.987 139.17 572.43L134.78 585.77C134.095 585.589 133.378 585.558 132.68 585.68C131.981 585.802 131.317 586.074 130.734 586.477C130.15 586.88 129.661 587.404 129.3 588.014C128.938 588.624 128.713 589.305 128.64 590.011C128.567 590.716 128.648 591.429 128.876 592.1C129.105 592.771 129.476 593.385 129.965 593.899C130.453 594.413 131.047 594.815 131.706 595.078C132.364 595.34 133.072 595.457 133.78 595.42L135.05 607C134.583 607.121 134.163 607.377 133.841 607.736C133.519 608.095 133.31 608.541 133.241 609.019C133.171 609.496 133.244 609.983 133.45 610.419C133.657 610.855 133.987 611.22 134.4 611.469C134.813 611.718 135.29 611.84 135.772 611.819C136.253 611.798 136.718 611.636 137.108 611.352C137.498 611.068 137.795 610.675 137.963 610.223C138.13 609.771 138.161 609.279 138.05 608.81C138.019 608.686 137.975 608.565 137.92 608.45L147.32 603.14C147.784 603.667 148.384 604.056 149.054 604.266C149.724 604.476 150.438 604.498 151.12 604.33H151.27L154.79 613.85C153.908 614.243 153.205 614.953 152.82 615.839C152.435 616.725 152.397 617.723 152.712 618.636C153.027 619.549 153.673 620.311 154.523 620.771C155.372 621.23 156.363 621.355 157.3 621.12C157.434 621.092 157.564 621.052 157.69 621L162.6 631.22C161.757 631.713 161.132 632.508 160.852 633.444C160.572 634.38 160.657 635.387 161.09 636.263C161.523 637.138 162.272 637.817 163.186 638.162C164.1 638.507 165.11 638.493 166.014 638.123C166.918 637.752 167.648 637.053 168.056 636.165C168.465 635.278 168.522 634.269 168.215 633.341C167.909 632.414 167.263 631.637 166.406 631.167C165.55 630.697 164.547 630.57 163.6 630.81C163.432 630.848 163.268 630.902 163.11 630.97L158.2 620.77C158.951 620.364 159.547 619.722 159.896 618.942C160.245 618.163 160.327 617.291 160.13 616.46C159.996 615.917 159.747 615.409 159.4 614.97L172.88 602.59C173.512 603.18 174.324 603.541 175.185 603.614C176.047 603.688 176.908 603.47 177.631 602.996C178.354 602.521 178.897 601.818 179.172 600.999C179.448 600.179 179.441 599.291 179.151 598.476C178.862 597.661 178.307 596.967 177.576 596.505C176.846 596.043 175.981 595.84 175.121 595.928C174.261 596.016 173.455 596.391 172.833 596.991C172.211 597.592 171.808 598.384 171.69 599.24L153.96 599.81C153.965 599.777 153.965 599.743 153.96 599.71C153.841 599.217 153.625 598.752 153.326 598.342C153.027 597.932 152.65 597.586 152.217 597.321C151.784 597.057 151.303 596.881 150.801 596.803C150.3 596.724 149.788 596.745 149.295 596.865C148.802 596.984 148.337 597.2 147.927 597.499C147.518 597.798 147.171 598.175 146.906 598.608C146.642 599.041 146.466 599.522 146.388 600.024C146.309 600.525 146.331 601.037 146.45 601.53C146.559 601.952 146.735 602.353 146.97 602.72L137.64 607.98C137.41 607.667 137.109 607.412 136.761 607.239C136.413 607.065 136.029 606.976 135.64 606.98L134.39 595.45L134.73 595.38C135.974 595.08 137.051 594.305 137.731 593.221C138.412 592.138 138.641 590.831 138.37 589.58L158.67 583.92C159.077 585.117 159.93 586.112 161.051 586.696C162.173 587.28 163.477 587.409 164.691 587.056C165.905 586.703 166.936 585.895 167.57 584.8C168.203 583.706 168.389 582.409 168.09 581.18C167.989 580.768 167.835 580.371 167.63 580L186.35 568.49C186.862 569.221 187.564 569.799 188.381 570.161C189.197 570.523 190.097 570.656 190.983 570.545C191.869 570.434 192.708 570.083 193.409 569.531C194.111 568.978 194.648 568.245 194.964 567.41C195.28 566.574 195.362 565.669 195.202 564.79C195.041 563.912 194.644 563.094 194.053 562.424C193.462 561.755 192.7 561.259 191.849 560.99C190.997 560.722 190.088 560.691 189.22 560.9C189.02 560.95 188.84 561.01 188.66 561.07L171.19 521.61C172.321 520.987 173.224 520.02 173.77 518.85L204.65 537.85C203.906 539.179 203.695 540.741 204.06 542.22C204.309 543.255 204.824 544.208 205.554 544.982C206.285 545.757 207.205 546.327 208.225 546.635C209.244 546.944 210.326 546.98 211.363 546.741C212.401 546.501 213.358 545.994 214.139 545.271C214.919 544.547 215.497 543.631 215.815 542.615C216.132 541.598 216.178 540.516 215.947 539.477C215.717 538.437 215.218 537.476 214.501 536.689C213.784 535.902 212.874 535.316 211.86 534.99L217.86 513.21C219.131 513.41 220.432 513.196 221.571 512.6C222.711 512.004 223.629 511.057 224.19 509.9L246.79 516.49C246.685 516.958 246.685 517.442 246.79 517.91C246.925 518.493 247.215 519.029 247.631 519.459C248.046 519.89 248.571 520.2 249.149 520.355C249.727 520.51 250.337 520.505 250.912 520.341C251.487 520.177 252.007 519.859 252.416 519.422C252.825 518.985 253.107 518.445 253.232 517.859C253.358 517.274 253.322 516.666 253.128 516.1C252.934 515.533 252.59 515.031 252.132 514.645C251.675 514.259 251.121 514.005 250.53 513.91L251.47 501.6H251.54C251.897 501.501 252.201 501.268 252.388 500.948C252.574 500.629 252.629 500.249 252.54 499.89C252.483 499.663 252.371 499.453 252.214 499.278C252.057 499.104 251.86 498.971 251.64 498.89L253 481.17C253.542 481.191 254.083 481.137 254.61 481.01C254.74 481.01 254.87 480.93 254.99 480.89L264.68 500.05C264.234 500.369 263.922 500.843 263.807 501.379C263.692 501.915 263.782 502.475 264.058 502.949C264.334 503.423 264.777 503.776 265.301 503.94C265.824 504.104 266.39 504.066 266.887 503.835C267.384 503.603 267.777 503.194 267.988 502.688C268.2 502.182 268.214 501.615 268.029 501.099C267.845 500.583 267.473 500.154 266.989 499.897C266.504 499.64 265.941 499.573 265.41 499.71L265.2 499.79L255.54 480.69C256.579 480.26 257.477 479.546 258.13 478.63L287.32 497.54C287.217 498.206 287.244 498.885 287.4 499.54C287.743 500.835 288.579 501.943 289.73 502.629C290.88 503.314 292.253 503.521 293.555 503.206C294.856 502.891 295.983 502.078 296.692 500.942C297.401 499.806 297.638 498.438 297.35 497.13C297.26 496.784 297.133 496.449 296.97 496.13L304.66 487.49C305.04 487.722 305.497 487.794 305.93 487.69C306.172 487.632 306.397 487.52 306.589 487.362C306.781 487.204 306.936 487.005 307.04 486.78L321.89 490.92C321.746 491.538 321.746 492.182 321.89 492.8C322.135 493.804 322.733 494.687 323.575 495.286C324.417 495.885 325.446 496.161 326.475 496.063C327.504 495.965 328.463 495.5 329.177 494.753C329.891 494.005 330.312 493.026 330.363 491.994C330.414 490.961 330.091 489.945 329.454 489.132C328.817 488.318 327.908 487.761 326.893 487.562C325.879 487.364 324.827 487.538 323.931 488.051C323.034 488.565 322.352 489.385 322.01 490.36L307.16 486.22C307.195 486.038 307.195 485.852 307.16 485.67C307.066 485.285 306.839 484.946 306.518 484.714C306.198 484.481 305.805 484.37 305.41 484.4L300.41 464.73C302.084 464.232 303.518 463.138 304.44 461.655C305.362 460.172 305.708 458.402 305.413 456.68C305.118 454.959 304.202 453.405 302.839 452.313C301.476 451.221 299.76 450.667 298.016 450.755C296.272 450.843 294.62 451.567 293.374 452.791C292.127 454.014 291.373 455.652 291.252 457.395C291.132 459.137 291.655 460.863 292.721 462.246C293.788 463.629 295.324 464.573 297.04 464.9L292.83 493.28C292.271 493.226 291.706 493.266 291.16 493.4C290.927 493.452 290.699 493.526 290.48 493.62L279.43 469.81C280.355 469.507 281.125 468.856 281.577 467.994C282.03 467.132 282.128 466.128 281.853 465.195C281.577 464.262 280.948 463.473 280.1 462.996C279.252 462.519 278.251 462.391 277.31 462.64C276.959 462.729 276.622 462.867 276.31 463.05L265.31 439.4C266.565 438.741 267.551 437.664 268.097 436.356C268.643 435.048 268.717 433.591 268.304 432.235C267.891 430.879 267.018 429.709 265.835 428.928C264.652 428.146 263.234 427.802 261.825 427.954C260.415 428.106 259.103 428.745 258.114 429.76C257.125 430.776 256.522 432.105 256.408 433.518C256.293 434.931 256.675 436.339 257.488 437.501C258.301 438.662 259.493 439.503 260.86 439.88L254.23 469.12C253.401 468.974 252.55 468.998 251.73 469.19C251.108 469.343 250.515 469.593 249.97 469.93L237.06 451C237.429 450.678 237.68 450.241 237.772 449.76C237.863 449.279 237.791 448.781 237.567 448.346C237.342 447.91 236.978 447.563 236.533 447.359C236.087 447.155 235.586 447.106 235.11 447.22C234.936 447.262 234.768 447.326 234.61 447.41L223.61 431.25C224.489 430.587 225.172 429.699 225.587 428.68C226.002 427.66 226.134 426.547 225.968 425.459C225.802 424.371 225.344 423.348 224.644 422.499C223.944 421.649 223.027 421.005 221.99 420.635C220.953 420.265 219.836 420.182 218.756 420.395C217.676 420.608 216.674 421.11 215.856 421.846C215.038 422.583 214.434 423.527 214.109 424.579C213.784 425.63 213.75 426.75 214.01 427.82V427.82L172.48 440.07C172.463 439.956 172.439 439.842 172.41 439.73C172.212 438.907 171.775 438.161 171.155 437.584C170.535 437.008 169.758 436.626 168.923 436.488C168.088 436.35 167.23 436.461 166.457 436.808C165.685 437.154 165.031 437.72 164.578 438.436C164.126 439.151 163.894 439.984 163.911 440.831C163.929 441.677 164.196 442.5 164.678 443.196C165.16 443.892 165.837 444.43 166.623 444.744C167.41 445.058 168.271 445.133 169.1 444.96L175.9 468.59C174.07 469.246 172.547 470.556 171.624 472.267C170.701 473.978 170.443 475.97 170.9 477.86C171.25 479.337 172.025 480.679 173.13 481.72L167.37 488.92C166.909 488.668 166.371 488.596 165.86 488.72C165.792 488.735 165.725 488.755 165.66 488.78L157.18 468C157.744 467.699 158.172 467.194 158.376 466.589C158.581 465.983 158.546 465.322 158.28 464.741C158.014 464.16 157.536 463.702 156.944 463.461C156.352 463.22 155.691 463.214 155.094 463.444C154.498 463.674 154.012 464.123 153.735 464.7C153.459 465.276 153.412 465.936 153.606 466.545C153.799 467.154 154.218 467.667 154.776 467.978C155.334 468.289 155.99 468.376 156.61 468.22L165.1 489.1C164.691 489.383 164.393 489.801 164.26 490.281C164.127 490.761 164.166 491.272 164.37 491.726C164.575 492.18 164.932 492.548 165.379 492.766C165.827 492.984 166.337 493.039 166.82 492.92C167.368 492.785 167.84 492.439 168.134 491.958C168.428 491.477 168.52 490.899 168.39 490.35C168.292 489.968 168.087 489.621 167.8 489.35L173.52 482.18C174.559 483.032 175.799 483.605 177.121 483.844C178.443 484.082 179.805 483.98 181.076 483.545C182.348 483.11 183.487 482.358 184.387 481.359C185.286 480.36 185.915 479.149 186.215 477.839C186.514 476.529 186.475 475.164 186.099 473.874C185.723 472.583 185.024 471.411 184.068 470.466C183.112 469.522 181.931 468.837 180.636 468.477C179.341 468.118 177.976 468.094 176.67 468.41L176.39 468.49L169.59 444.89C170.444 444.584 171.18 444.019 171.695 443.272C172.21 442.526 172.478 441.637 172.46 440.73L214.11 428.46C214.543 429.704 215.368 430.774 216.46 431.51L202 455.34C200.968 454.78 199.795 454.53 198.624 454.621C197.452 454.711 196.332 455.139 195.399 455.852C194.465 456.565 193.757 457.533 193.361 458.639C192.965 459.745 192.897 460.942 193.166 462.086C193.435 463.229 194.029 464.271 194.876 465.085C195.724 465.898 196.788 466.45 197.942 466.672C199.095 466.895 200.289 466.779 201.378 466.338C202.467 465.898 203.405 465.152 204.08 464.19L222.77 476C222.337 476.805 222.216 477.741 222.43 478.63C222.556 479.12 222.773 479.581 223.07 479.99L199.88 500.24C199.222 499.549 198.424 499.007 197.539 498.65C196.654 498.293 195.703 498.129 194.75 498.17L194.14 485C194.248 484.99 194.355 484.97 194.46 484.94C195.249 484.746 195.935 484.261 196.379 483.581C196.824 482.902 196.995 482.079 196.857 481.279C196.72 480.478 196.284 479.76 195.638 479.268C194.991 478.776 194.183 478.548 193.374 478.629C192.566 478.71 191.819 479.094 191.283 479.704C190.747 480.314 190.462 481.104 190.485 481.916C190.509 482.728 190.839 483.5 191.41 484.078C191.98 484.656 192.749 484.996 193.56 485.03L194.17 498.29C193.931 498.319 193.694 498.362 193.46 498.42C192.175 498.734 191.013 499.421 190.118 500.395C189.224 501.369 188.639 502.587 188.436 503.893C188.233 505.2 188.422 506.538 188.979 507.737C189.536 508.936 190.436 509.944 191.565 510.632C192.695 511.32 194.002 511.658 195.324 511.603C196.645 511.549 197.92 511.104 198.989 510.324C200.057 509.545 200.871 508.467 201.327 507.225C201.782 505.984 201.86 504.636 201.55 503.35C201.318 502.399 200.877 501.511 200.26 500.75L223.46 480.49C223.989 481.013 224.663 481.365 225.394 481.502C226.125 481.64 226.881 481.555 227.564 481.259C228.246 480.963 228.825 480.47 229.225 479.843C229.626 479.216 229.829 478.484 229.81 477.74L247.13 476C247.154 476.182 247.187 476.362 247.23 476.54C247.523 477.742 248.174 478.827 249.097 479.65C250.021 480.473 251.173 480.996 252.4 481.15L251.07 498.67C250.994 498.66 250.916 498.66 250.84 498.67C250.528 498.741 250.25 498.915 250.05 499.165C249.851 499.415 249.742 499.725 249.742 500.045C249.742 500.365 249.851 500.675 250.05 500.925C250.25 501.175 250.528 501.349 250.84 501.42L249.9 513.7C249.654 513.7 249.409 513.73 249.17 513.79C248.653 513.912 248.174 514.158 247.774 514.507C247.373 514.855 247.063 515.295 246.87 515.79L224.35 509.23C224.796 508.074 224.878 506.809 224.587 505.604C224.296 504.399 223.645 503.312 222.721 502.487C221.796 501.661 220.642 501.137 219.413 500.984C218.183 500.83 216.935 501.055 215.837 501.628C214.738 502.202 213.84 503.096 213.262 504.192C212.684 505.289 212.454 506.535 212.602 507.765C212.75 508.996 213.269 510.152 214.091 511.08C214.912 512.008 215.997 512.664 217.2 512.96L211.27 534.69C210.081 534.428 208.841 534.529 207.709 534.978C206.578 535.427 205.606 536.204 204.92 537.21L173.92 518.21C174.347 517.015 174.39 515.717 174.043 514.497C173.697 513.276 172.978 512.195 171.986 511.403C170.995 510.611 169.781 510.148 168.515 510.08C167.248 510.011 165.991 510.34 164.92 511.02L141.53 483.82C143.072 482.406 144.069 480.495 144.345 478.421C144.621 476.347 144.159 474.242 143.041 472.474C141.922 470.706 140.217 469.388 138.225 468.75C136.232 468.111 134.079 468.194 132.141 468.982C130.203 469.771 128.604 471.216 127.623 473.064C126.643 474.912 126.343 477.046 126.777 479.093C127.21 481.14 128.35 482.969 129.995 484.261C131.641 485.553 133.689 486.225 135.78 486.16L138.31 525.73H138.07C137.672 525.827 137.296 526.001 136.965 526.243C136.634 526.485 136.353 526.79 136.14 527.14L121.48 520.14C121.999 518.939 122.112 517.601 121.8 516.33C121.517 515.157 120.892 514.094 120.004 513.276C119.117 512.459 118.007 511.923 116.815 511.736C115.622 511.549 114.402 511.72 113.307 512.227C112.212 512.735 111.292 513.555 110.663 514.585C110.035 515.616 109.726 516.809 109.776 518.015C109.826 519.221 110.232 520.384 110.944 521.359C111.655 522.334 112.64 523.076 113.773 523.49C114.907 523.905 116.137 523.975 117.31 523.69C118.139 523.497 118.917 523.129 119.593 522.612C120.269 522.095 120.827 521.439 121.23 520.69L135.89 527.69C135.685 528.246 135.645 528.849 135.775 529.428C135.904 530.006 136.198 530.534 136.62 530.95L117.98 553.59C117.167 553.004 116.22 552.631 115.226 552.505C114.232 552.378 113.222 552.503 112.288 552.868C111.355 553.232 110.528 553.825 109.882 554.591C109.236 555.358 108.793 556.274 108.592 557.256C108.392 558.238 108.44 559.254 108.734 560.213C109.027 561.171 109.556 562.041 110.271 562.742C110.987 563.443 111.867 563.954 112.831 564.228C113.795 564.502 114.812 564.53 115.79 564.31L115.87 564.33ZM171.62 599.74C171.619 600.026 171.653 600.312 171.72 600.59C171.852 601.131 172.102 601.636 172.45 602.07L159 614.46C158.533 614.02 157.964 613.704 157.344 613.539C156.724 613.375 156.073 613.369 155.45 613.52L155.3 613.57L151.76 604C152.46 603.677 153.048 603.153 153.447 602.493C153.846 601.834 154.039 601.07 154 600.3L171.62 599.74ZM297.62 464.94C298.365 465.023 299.117 464.986 299.85 464.83L304.85 484.5C304.617 484.603 304.411 484.758 304.248 484.954C304.085 485.149 303.969 485.38 303.909 485.627C303.849 485.875 303.847 486.133 303.902 486.381C303.958 486.629 304.07 486.862 304.23 487.06L296.67 495.55C295.921 494.404 294.749 493.603 293.41 493.32L297.62 464.94ZM261.42 439.94C262.25 440.089 263.102 440.062 263.92 439.86C264.217 439.788 264.507 439.694 264.79 439.58L275.79 463.32C275.162 463.846 274.723 464.564 274.542 465.363C274.361 466.162 274.448 466.999 274.789 467.744C275.13 468.489 275.706 469.102 276.429 469.488C277.152 469.874 277.981 470.011 278.79 469.88L289.89 493.79C289.284 494.115 288.749 494.559 288.318 495.095C287.887 495.631 287.568 496.248 287.38 496.91L258.38 478.12C258.85 477.314 259.129 476.412 259.195 475.481C259.261 474.551 259.112 473.618 258.761 472.754C258.409 471.89 257.863 471.119 257.166 470.499C256.469 469.879 255.639 469.428 254.74 469.18L261.42 439.94ZM229.76 477.1C229.765 477.027 229.765 476.953 229.76 476.88C229.595 476.188 229.235 475.557 228.724 475.062C228.212 474.567 227.57 474.229 226.873 474.086C226.176 473.943 225.452 474.002 224.788 474.256C224.123 474.51 223.544 474.949 223.12 475.52L204.42 463.67C205.184 462.337 205.413 460.764 205.062 459.268C204.712 457.772 203.807 456.465 202.53 455.61L217 431.74C218.323 432.47 219.873 432.673 221.34 432.31C221.963 432.165 222.557 431.918 223.1 431.58L234.1 447.75C233.812 448.013 233.6 448.348 233.485 448.721C233.371 449.094 233.359 449.491 233.45 449.87C233.588 450.436 233.944 450.924 234.44 451.228C234.937 451.531 235.534 451.626 236.1 451.49C236.252 451.453 236.4 451.4 236.54 451.33L249.44 470.22C248.645 470.82 248.009 471.606 247.589 472.509C247.169 473.413 246.977 474.405 247.03 475.4L229.76 477.1ZM167.33 579.4C166.683 578.47 165.733 577.793 164.643 577.484C163.553 577.176 162.389 577.254 161.35 577.707C160.312 578.16 159.462 578.959 158.946 579.968C158.43 580.976 158.279 582.133 158.52 583.24L138.22 588.9C137.994 588.223 137.623 587.604 137.132 587.085C136.642 586.567 136.044 586.163 135.38 585.9L139.75 572.6C140.541 572.879 141.395 572.924 142.21 572.73C142.761 572.596 143.279 572.355 143.736 572.021C144.194 571.687 144.581 571.266 144.875 570.782C145.169 570.298 145.366 569.761 145.452 569.201C145.539 568.642 145.514 568.07 145.38 567.52C145.322 567.272 145.239 567.03 145.13 566.8L160.31 559.3C160.863 560.298 161.686 561.12 162.683 561.673C163.681 562.226 164.814 562.488 165.953 562.428C167.092 562.369 168.192 561.991 169.127 561.337C170.061 560.683 170.794 559.78 171.24 558.73L185.68 564.09C185.423 564.931 185.395 565.825 185.6 566.68C185.702 567.084 185.853 567.473 186.05 567.84L167.33 579.4ZM188.13 561.19C187.127 561.703 186.332 562.547 185.88 563.58L171.44 558.22C171.784 557.159 171.826 556.023 171.56 554.94C171.231 553.573 170.438 552.361 169.317 551.512C168.196 550.662 166.816 550.227 165.41 550.28L165.99 521.82C167.163 522.287 168.452 522.381 169.68 522.09C170.02 521.998 170.354 521.885 170.68 521.75L188.13 561.19ZM136.45 486.09C136.868 486.052 137.282 485.985 137.69 485.89C138.966 485.577 140.158 484.986 141.18 484.16L164.54 511.32C163.723 511.94 163.077 512.757 162.66 513.695C162.244 514.633 162.072 515.66 162.16 516.682C162.248 517.704 162.593 518.688 163.163 519.54C163.733 520.393 164.509 521.088 165.42 521.56L164.83 550.33C164.623 550.33 164.413 550.37 164.2 550.45C163.128 550.709 162.146 551.255 161.36 552.03L140.96 531.03C141.42 530.617 141.744 530.075 141.892 529.475C142.04 528.874 142.003 528.244 141.787 527.664C141.572 527.085 141.187 526.584 140.682 526.227C140.178 525.869 139.578 525.672 138.96 525.66L136.45 486.09ZM137.16 531.3C137.515 531.546 137.917 531.714 138.341 531.793C138.765 531.872 139.201 531.861 139.62 531.76C139.927 531.677 140.22 531.549 140.49 531.38L161 552.49C160.385 553.221 159.951 554.085 159.732 555.015C159.513 555.944 159.516 556.912 159.74 557.84C159.826 558.182 159.94 558.516 160.08 558.84L144.9 566.34C144.48 565.661 143.879 565.112 143.166 564.754C142.452 564.395 141.653 564.242 140.857 564.31C140.062 564.378 139.301 564.666 138.658 565.141C138.016 565.616 137.519 566.259 137.22 567L120.22 560.38C120.59 559.266 120.63 558.068 120.333 556.933C120.037 555.797 119.418 554.771 118.55 553.98L137.16 531.3Z" fill="url(#paint6_linear_185_349)"/>
<path d="M111 602.56C110.81 602.1 110.64 601.63 110.43 601.19C105.34 590.09 102.43 575.75 99.8001 559.38C99.5801 558.01 99.3901 556.65 99.2301 555.27C99.2301 555.17 99.2301 555.07 99.2301 554.97C99.1001 553.9 98.9901 552.82 98.8901 551.74C98.6301 548.82 98.4901 546.12 98.4101 543.74C98.4101 543.14 98.4101 542.55 98.4101 541.96C98.4101 541.67 98.4101 541.38 98.4101 541.09C98.4101 540.62 98.4101 540.17 98.4101 539.75C98.5201 471.34 154.33 415.48 222.73 415.31C240.5 415.256 258.076 419.012 274.272 426.324C290.468 433.636 304.908 444.335 316.62 457.7C316.33 457.25 316.03 456.8 315.73 456.36L315.57 456.12L314.99 455.29C314.9 455.14 314.79 454.99 314.68 454.83L314.41 454.45C314.11 454.02 313.79 453.59 313.48 453.17L313.4 453.07C313.13 452.69 312.85 452.32 312.57 451.96C312.51 451.87 312.44 451.79 312.38 451.71L312.28 451.57C312.252 451.529 312.219 451.492 312.18 451.46L312.12 451.37L311.92 451.11C311.66 450.77 311.39 450.43 311.12 450.11C310.85 449.79 310.45 449.27 310.12 448.86L309.97 448.68L309.73 448.39C309.51 448.11 309.28 447.85 309.05 447.58L308.78 447.27L307.86 446.22C307.842 446.189 307.819 446.162 307.79 446.14L307.28 445.57C306.97 445.22 306.66 444.87 306.34 444.57L305.58 443.76C305.48 443.64 305.37 443.53 305.27 443.42L304.89 443.03C304.69 442.82 304.5 442.61 304.3 442.41L304.07 442.18L303.49 441.59L303.44 441.54L302.57 440.67L302.13 440.23L301.49 439.62C301.432 439.555 301.368 439.495 301.3 439.44L300.85 439.01L300.16 438.36C299.94 438.15 299.72 437.94 299.48 437.74L298.82 437.12L299.37 437.64C279.795 419.632 254.484 409.123 227.91 407.97H226.59H225.85H225.23H223C197.073 407.97 171.718 415.595 150.091 429.895C128.464 444.195 111.519 464.539 101.367 488.396C91.2138 512.253 88.3009 538.569 92.9902 564.069C97.6796 589.568 109.764 613.126 127.74 631.81C121.591 623.385 116.317 614.355 112 604.86C111.67 604.09 111.34 603.32 111 602.56Z" fill="url(#paint7_linear_185_349)"/>
<path d="M338.76 603.85C352.566 578.743 357.852 549.835 353.826 521.467C349.799 493.099 336.677 466.803 316.43 446.53C309.641 439.741 302.137 433.706 294.05 428.53C338.05 470.9 347.46 517.64 347.59 539.29C347.99 607.52 292.9 663.74 224.67 664.66C202.036 664.961 179.748 659.097 160.193 647.696C140.639 636.294 124.556 619.786 113.67 599.94C113.85 600.38 114.03 600.82 114.22 601.26C117.748 609.473 122.061 617.326 127.1 624.71C138.35 641.679 154.434 654.882 173.27 662.61C197.359 672.32 223.769 674.738 249.221 669.564C274.673 664.391 298.043 651.854 316.43 633.51C320.94 628.978 325.121 624.129 328.94 619L353.22 619.61L338.76 603.85Z" fill="url(#paint8_linear_185_349)"/>
<defs>
<linearGradient id="paint0_linear_185_349" x1="114.81" y1="461.76" x2="334.38" y2="631.42" gradientUnits="userSpaceOnUse">
<stop stop-color="#01BF71"/>
<stop offset="1" stop-color="#01BF71"/>
</linearGradient>
<linearGradient id="paint1_linear_185_349" x1="12452.2" y1="41807.4" x2="32851" y2="55017.8" gradientUnits="userSpaceOnUse">
<stop stop-color="#01BF71"/>
<stop offset="1" stop-color="#50EFDC"/>
</linearGradient>
<linearGradient id="paint2_linear_185_349" x1="8122.41" y1="43620.7" x2="27090.4" y2="62529.9" gradientUnits="userSpaceOnUse">
<stop stop-color="#01BF71"/>
<stop offset="1" stop-color="#2CEFD8"/>
</linearGradient>
<linearGradient id="paint3_linear_185_349" x1="3397.24" y1="9586.81" x2="8095.83" y2="13217.5" gradientUnits="userSpaceOnUse">
<stop stop-color="#01BF71"/>
<stop offset="1" stop-color="#50EFDC"/>
</linearGradient>
<linearGradient id="paint4_linear_185_349" x1="2667.7" y1="10499.1" x2="7366.28" y2="14129.8" gradientUnits="userSpaceOnUse">
<stop stop-color="#01BF71"/>
<stop offset="1" stop-color="#50EFDC"/>
</linearGradient>
<linearGradient id="paint5_linear_185_349" x1="1871.47" y1="11520.3" x2="6570.27" y2="15151" gradientUnits="userSpaceOnUse">
<stop stop-color="#01BF71"/>
<stop offset="1" stop-color="#50EFDC"/>
</linearGradient>
<linearGradient id="paint6_linear_185_349" x1="26418.8" y1="100085" x2="74512.4" y2="137889" gradientUnits="userSpaceOnUse">
<stop stop-color="#01BF71"/>
<stop offset="1" stop-color="#ADDDEC"/>
</linearGradient>
<linearGradient id="paint7_linear_185_349" x1="26411.2" y1="103260" x2="75666.8" y2="141655" gradientUnits="userSpaceOnUse">
<stop stop-color="#01BF71"/>
<stop offset="1" stop-color="#50C8EF"/>
</linearGradient>
<linearGradient id="paint8_linear_185_349" x1="28546.7" y1="112029" x2="81925.9" y2="152901" gradientUnits="userSpaceOnUse">
<stop stop-color="#01BF71"/>
<stop offset="1" stop-color="#50EFDC"/>
</linearGradient>
</defs>
</svg>
