<svg width="1801" height="1668" viewBox="0 0 1801 1668" fill="none" xmlns="http://www.w3.org/2000/svg">
<g clip-path="url(#clip0_204_4898)">
<path opacity="0.1" d="M757.209 175.79C534.313 106.575 275.721 209.047 115.383 387.114C68.1282 439.671 28.2345 501.754 10.6049 571.944C-10.7324 656.946 2.02635 748.431 31.9603 830.464C77.1066 954.172 163.074 1062.61 274.994 1121.96C386.915 1181.31 524.498 1188.62 637.782 1132.14C700.83 1100.7 757.936 1050.16 827.182 1041.77C933.177 1028.94 1022.85 1116.79 1118.78 1166.26C1184.44 1200.13 1256.67 1216.64 1328.13 1232.64C1409.16 1250.81 1494.91 1268.44 1573.29 1240.16C1638.22 1216.72 1690.9 1163.25 1725.84 1100.71C1760.77 1038.17 1779.42 966.902 1791.59 895.442C1799.23 850.593 1804.46 804.621 1798.26 759.58C1791.81 712.531 1773.04 668.022 1748.55 628.253C1693.3 538.392 1609.57 471.348 1519.06 423.324C1428.55 375.3 1330.79 344.908 1233.39 315.698C1058.31 263.066 937.794 202.593 757.645 175.495L757.209 175.79Z" fill="#01BF71"/>
<path fill-rule="evenodd" clip-rule="evenodd" d="M1354.59 1205.44C1375.16 1161.41 1400.88 1067.64 1280.86 1017.39C1120.45 950.223 1289.61 892.357 1185.81 849.335C1082.02 806.314 1282.91 609.928 990.522 696.958C698.131 783.988 733.545 650.024 632.82 637.272C532.095 624.521 405.494 729.403 507.534 849.335C609.573 969.266 485.932 1037.39 403.848 1049.4C333.298 1059.71 291.471 1149.83 399.057 1205.44H215.916C195.448 1205.44 198.866 1218.97 222.006 1218.97H1508.9C1521.51 1218.97 1520.45 1205.44 1507.67 1205.44H1354.59Z" fill="#168C8C"/>
<path fill-rule="evenodd" clip-rule="evenodd" d="M1099.36 1158.12C1099.36 1158.12 1069.53 1112.5 1111.02 1071.5C1152.51 1030.49 1271.53 1051.19 1234.3 962.785C1217.5 897.662 1280.29 883.594 1335.13 874.254C1389.98 864.914 1359.11 826.599 1422.71 829.028C1486.3 831.456 1461.64 770.405 1543.46 771.77C1543.46 771.77 1580.59 809.999 1525.31 841.835C1494.31 879.6 1542.95 951.487 1474.49 981.792C1350.12 1011.28 1449.96 1081.44 1404.49 1117.55C1359.03 1153.66 1306.34 1090.93 1291.75 1172C1296.1 1224.66 1201.07 1269.35 1145.78 1218.1C1107.33 1196.61 1099.36 1158.12 1099.36 1158.12" fill="#54BE8D"/>
<path d="M1132.58 1209.46C1132.83 1209.29 1165.26 1185.61 1212.96 1144.09L1287.47 1114.07L1286.8 1112.65L1216.56 1140.95C1232.53 1126.97 1250.09 1111.08 1268.68 1093.47L1330.12 1068.72L1329.45 1067.3L1271.77 1090.53C1290.95 1072.27 1311.14 1052.21 1331.72 1030.56L1394.3 1005.35L1393.64 1003.92L1334.31 1027.82C1352.99 1008.07 1371.96 987.028 1390.73 964.849L1454.99 938.966L1454.32 937.544L1392.9 962.283C1408.72 943.484 1424.4 923.889 1439.61 903.582L1491.42 882.715L1490.75 881.293L1441.43 901.164C1456.55 880.874 1471.23 859.899 1485.14 838.314L1483.23 837.249C1468.9 859.479 1453.76 881.062 1438.15 901.913L1411.78 852.564L1410.28 853.254L1437.06 903.369C1421.29 924.383 1405.02 944.625 1388.6 964.011L1388.19 964.178L1354.58 901.264L1353.08 901.955L1387.16 965.726C1367.97 988.314 1348.58 1009.71 1329.52 1029.75L1327.52 1030.56L1293.89 967.645L1292.4 968.335L1326.72 1032.57L1326.9 1032.5C1306.07 1054.28 1285.67 1074.43 1266.37 1092.71L1263.33 1093.93L1229.71 1031.02L1228.22 1031.71L1262.54 1095.94L1263.24 1095.66C1244.35 1113.46 1226.55 1129.44 1210.52 1143.38L1207.71 1144.51L1167.5 1069.26L1166 1069.95L1206.92 1146.51C1161.78 1185.52 1131.43 1207.68 1131.2 1207.85L1132.58 1209.46" fill="white"/>
<path fill-rule="evenodd" clip-rule="evenodd" d="M689 1130.12C689 1130.12 718.834 1084.5 677.342 1043.49C635.851 1002.49 516.826 1023.18 554.052 934.782C570.863 869.66 508.072 855.59 453.225 846.251C398.377 836.911 429.248 798.598 365.654 801.024C302.06 803.45 326.718 742.398 244.903 743.765C244.903 743.765 207.769 781.993 263.053 813.828C294.054 851.597 245.411 923.484 313.872 953.788C438.239 983.28 338.397 1053.44 383.864 1089.55C429.331 1125.65 482.018 1062.93 496.611 1144C492.258 1196.66 587.29 1241.35 642.574 1190.09C681.023 1168.61 689 1130.12 689 1130.12" fill="#54BE8D"/>
<path d="M655.774 1181.46C655.533 1181.28 623.098 1157.61 575.396 1116.08L500.884 1086.07L501.554 1084.65L571.798 1112.94C555.836 1098.97 538.263 1083.08 519.681 1065.47L458.238 1040.72L458.907 1039.29L516.592 1062.53C497.414 1044.26 477.216 1024.2 456.642 1002.55L394.053 977.341L394.721 975.919L454.054 999.819C435.367 980.065 416.398 959.025 397.633 936.845L333.376 910.962L334.045 909.54L395.463 934.28C379.633 915.48 363.96 895.884 348.742 875.578L296.939 854.711L297.608 853.29L346.936 873.159C331.807 852.87 317.131 831.891 303.214 810.31L305.126 809.243C319.458 831.474 334.596 853.057 350.207 873.909L376.578 824.564L378.076 825.247L351.294 875.366C367.074 896.379 383.337 916.621 399.752 936.007L400.166 936.174L433.786 873.261L435.283 873.951L401.204 937.723C420.392 960.31 439.776 981.708 458.836 1001.75L460.844 1002.55L494.463 939.64L495.96 940.33L461.635 1004.56L461.463 1004.49C482.283 1026.28 502.688 1046.43 521.991 1064.7L525.028 1065.93L558.648 1003.01L560.145 1003.7L525.82 1067.94L525.118 1067.66C544.014 1085.46 561.804 1101.44 577.84 1115.38L580.647 1116.51L620.861 1041.26L622.358 1041.95L581.447 1118.5C626.582 1157.52 656.93 1179.67 657.163 1179.84L655.774 1181.46" fill="white"/>
<path fill-rule="evenodd" clip-rule="evenodd" d="M1096.55 1110.77C1096.55 1110.77 1063.88 1040.21 1086.83 966.961L1112.47 962.434L1088.84 945.026C1088.84 945.026 1103.01 877.519 1118.14 856.208L1148.15 852.273L1134.49 838.944C1134.49 838.944 1186.19 763.487 1220.63 751.484L1227.44 860.063L1196.17 866.303L1226.04 883.733C1226.04 883.733 1224.43 941.468 1214.22 974.345L1177.91 986.918L1209.1 994.536C1209.1 994.536 1160.23 1116.77 1096.55 1110.77" fill="#54BE8D"/>
<path d="M1180.33 794.238L1182.07 803.407C1187.04 794.688 1192.27 786.494 1197.77 778.992L1201.89 781.568C1196.33 789.153 1191.06 797.447 1186.05 806.292L1205.7 799.506L1207.43 803.824L1182.69 812.36C1170.15 835.636 1159.35 862.414 1150.08 890.523L1187.1 877.971L1188.81 882.289L1148.28 896.029C1142.98 912.558 1138.19 929.498 1133.87 946.405L1194.92 925.915L1196.62 930.253L1132.52 951.763C1125.84 978.574 1120.34 1005.2 1115.86 1029.9L1181.78 1002.73L1183.81 1006.94L1114.89 1035.35C1103.05 1102.19 1098.79 1153.65 1098.76 1153.98L1093.79 1153.64C1093.81 1153.3 1098.11 1101.39 1110.09 1033.99L1092.47 994.426L1097.09 992.674L1111.65 1025.37C1116.03 1001.63 1121.34 976.223 1127.73 950.632L1105.83 927.556L1109.57 924.519L1129.12 945.112C1133.43 928.231 1138.22 911.314 1143.52 894.794L1125.49 875.053L1129.3 872.071L1145.24 889.523C1154.63 861.018 1165.58 833.842 1178.31 810.201L1175.42 795.03L1180.33 794.238" fill="white"/>
<path fill-rule="evenodd" clip-rule="evenodd" d="M865.277 466.574C865.277 466.574 908.654 458.271 946.07 482.912L946.493 482.837L946.808 482.887C946.898 482.937 979.443 500.35 974.007 538.387L973.116 538.278C976.977 511.254 961.406 494.807 952.388 487.713C957.284 492.448 970.587 507.186 970.587 527.592C970.587 552.599 963.917 565.562 963.917 565.562L816.81 565.228C816.81 565.228 797.397 506.477 848.46 474.893C839.949 479.086 829.09 487.03 817.861 502.059L817.122 501.592C831.423 482.445 845.201 474.668 854.385 471.525C857.747 469.758 861.365 468.099 865.277 466.574" fill="#55392B"/>
<path fill-rule="evenodd" clip-rule="evenodd" d="M789.673 698.143C789.673 698.143 710.829 706.645 693.548 742.156L687.608 740.656L667.087 757.161L686.528 785.669C686.528 785.669 671.407 908.21 659.526 934.218C647.645 960.226 645.485 964.227 645.485 964.227C645.485 964.227 606.602 1000.74 586.621 1037.25C586.621 1037.25 555.299 1076.76 543.959 1080.76C532.618 1084.76 522.898 1078.01 518.038 1081.76C513.178 1085.51 508.858 1093.02 506.158 1093.52C503.457 1094.02 506.158 1096.52 506.158 1096.52C506.158 1096.52 502.376 1098.77 497.516 1103.52C492.656 1108.27 478.615 1120.52 478.615 1124.52C478.615 1128.53 483.205 1132.78 487.796 1133.53C492.386 1134.28 495.626 1133.03 495.626 1133.03C495.626 1133.03 494.006 1148.03 494.816 1151.28C495.626 1154.53 505.887 1160.29 512.907 1153.03C512.907 1153.03 511.827 1162.04 516.687 1163.29C521.547 1164.54 529.378 1162.29 533.428 1155.28C533.428 1155.28 538.019 1156.03 540.179 1155.53C540.179 1155.53 525.329 1174.04 530.999 1195.55C536.669 1217.05 568.802 1256.56 637.926 1250.56C707.05 1244.56 815.056 1209.55 815.056 1209.55C815.056 1209.55 1095.87 1262.57 1152.04 1253.56C1208.2 1244.56 1256.8 1217.55 1241.68 1159.54C1241.68 1159.54 1252.21 1158.78 1252.21 1154.78C1252.21 1154.78 1258.42 1156.53 1262.2 1155.78C1265.98 1155.03 1270.57 1151.28 1270.3 1144.53C1270.3 1144.53 1280.02 1143.03 1280.56 1132.03C1281.1 1121.02 1255.72 1100.27 1253.29 1094.01C1250.86 1087.76 1251.4 1083.51 1225.21 1075.26C1225.21 1075.26 1182.01 1037.75 1164.19 1002.24C1146.37 966.727 1120.45 950.222 1120.45 950.222C1120.45 950.222 1088.04 879.701 1079.4 782.668C1085.79 772.082 1092.18 761.495 1098.57 750.909C1098.57 750.909 1028.91 703.645 1007.04 699.393C985.168 695.142 973.827 696.642 973.827 696.642C973.827 696.642 935.485 688.64 931.165 675.136C926.845 661.632 934.648 638.717 934.648 638.717L846.096 638.667C846.096 638.667 849.618 693.642 789.673 698.143ZM1027.56 883.2C1027.56 883.2 1010.82 957.722 998.398 978.228C998.398 978.228 1006.5 1011.24 1005.96 1033.24C1005.96 1033.24 1015.68 1054.25 1016.22 1061.25C1016.22 1061.25 1031.88 1063.25 1038.9 1072.76C1038.9 1072.76 1076.16 1069.76 1084.8 1083.26C1084.8 1083.26 1085.88 1089.76 1084.26 1094.76C1084.26 1094.76 1152.85 1102.77 1192.27 1124.27C1192.27 1124.27 1182.55 1113.77 1179.85 1102.77C1179.85 1102.77 1072.92 1021.24 1060.5 993.733C1048.08 966.225 1027.56 883.2 1027.56 883.2ZM707.591 1095.26C707.591 1095.26 657.368 1093.26 606.065 1098.26C606.065 1098.26 630.906 1073.76 661.148 1051.75C691.39 1029.74 712.991 1005.24 715.151 982.23C717.311 959.224 740.532 897.204 740.532 897.204C740.532 897.204 742.152 938.217 746.473 946.719C750.793 955.222 762.134 972.227 762.134 972.227C762.134 972.227 719.741 1086.76 707.591 1095.26Z" fill="#01BF71"/>
<path fill-rule="evenodd" clip-rule="evenodd" d="M973.827 696.642C973.827 696.642 935.485 688.64 931.165 675.136C926.844 661.632 934.648 638.717 934.648 638.717L846.096 638.667C846.096 638.667 849.618 693.642 789.673 698.143C789.673 698.143 786.435 719.149 817.757 732.153C849.078 745.157 930.085 736.154 952.226 725.651C974.367 715.148 973.827 696.642 973.827 696.642" fill="#FFCFCF"/>
<path fill-rule="evenodd" clip-rule="evenodd" d="M929.869 664.533C930.067 652.171 934.648 638.717 934.648 638.717L846.096 638.667C846.096 638.667 860.965 678.128 903.092 674.127C913.569 673.127 922.443 669.467 929.869 664.533" fill="#FFADAD"/>
<path fill-rule="evenodd" clip-rule="evenodd" d="M955.106 563.328C955.781 563.086 956.537 562.844 957.311 562.661C959.507 562.219 962.702 562.227 963.918 565.562C965.457 571.447 965.457 577.315 965.457 581.483C965.457 585.734 964.125 592.603 958.976 595.487C957.05 596.563 955.556 596.079 954.422 595.037C948.374 632.248 922.002 660.257 890.39 660.257C858.744 660.257 832.355 632.19 826.337 594.921C825.195 596.038 823.656 596.604 821.67 595.487C816.521 592.603 815.19 585.734 815.19 581.483C815.19 577.232 815.19 571.23 816.81 565.228C817.902 561.185 822.679 562.252 825.673 563.378C857.546 544.622 870.245 522.482 871.574 522.274C872.904 522.065 907.304 555.567 955.106 563.328" fill="#FFCFCF"/>
<path fill-rule="evenodd" clip-rule="evenodd" d="M882.828 416.225C882.828 416.225 895.519 408.473 906.323 415.975C911.661 419.684 919.05 425.661 926.718 430.996C934.126 434.122 944.26 437.848 950.048 437.556C951.479 437.481 952.937 437.531 954.359 437.731C957.77 438.206 961.028 439.573 963.521 442.366C965.997 445.125 967.716 449.276 968.067 455.337C968.265 458.763 968.031 462.797 967.257 467.54L966.366 467.415C967.131 462.73 967.365 458.746 967.167 455.378C966.825 449.518 965.187 445.525 962.828 442.891C960.497 440.282 957.437 439.007 954.224 438.557C952.856 438.365 951.47 438.315 950.093 438.39C945.088 438.64 936.997 436.006 930.085 433.272C936.853 437.731 943.63 441.366 949.256 442.233C962.216 444.233 978.192 466.323 946.574 484.912C946.574 484.912 914.424 461.488 865.277 468.24L864.739 468.624C834.147 431.154 858.357 421.918 876.42 419.801C878.37 418.592 880.493 417.4 882.828 416.225V416.225ZM861.195 461.822C856.704 452.853 852.67 436.047 873.862 421.468C858.157 424.027 840.563 432.847 861.195 461.822Z" fill="#55392B"/>
<path fill-rule="evenodd" clip-rule="evenodd" d="M1241.68 1159.54C1241.68 1159.54 1252.21 1158.78 1252.21 1154.78C1252.21 1154.78 1258.42 1156.53 1262.2 1155.78C1265.98 1155.03 1270.57 1151.28 1270.3 1144.53C1270.3 1144.53 1280.02 1143.03 1280.56 1132.03C1281.1 1121.02 1255.72 1100.27 1253.29 1094.01C1250.86 1087.76 1251.4 1083.51 1225.21 1075.26C1225.21 1075.26 1182.01 1037.75 1164.19 1002.24C1146.37 966.727 1120.45 950.222 1120.45 950.222C1120.45 950.222 1088.04 879.7 1079.4 782.668L1077.18 773.415L1042.62 815.928L1026.96 885.833C1027.34 884.142 1027.56 883.2 1027.56 883.2C1027.56 883.2 1048.08 966.225 1060.5 993.733C1072.92 1021.24 1179.85 1102.77 1179.85 1102.77C1182.55 1113.77 1192.27 1124.27 1192.27 1124.27C1192.27 1124.27 1211.85 1150.1 1216.84 1150.28C1221.84 1150.46 1230.38 1150.08 1232.23 1151.78C1234.09 1153.48 1236.61 1157.29 1241.68 1159.54" fill="#FFCFCF"/>
<path fill-rule="evenodd" clip-rule="evenodd" d="M686.528 785.669C686.528 785.669 671.407 908.21 659.526 934.218C647.644 960.225 645.485 964.227 645.485 964.227C645.485 964.227 606.602 1000.74 586.621 1037.25C586.621 1037.25 555.299 1076.76 543.959 1080.76C532.618 1084.76 522.898 1078.01 518.038 1081.76C513.178 1085.51 508.858 1093.02 506.158 1093.52C503.457 1094.02 506.158 1096.52 506.158 1096.52C506.158 1096.52 502.376 1098.77 497.516 1103.52C492.656 1108.27 478.615 1120.52 478.615 1124.52C478.615 1128.53 483.205 1132.78 487.796 1133.53C492.386 1134.28 495.626 1133.03 495.626 1133.03C495.626 1133.03 494.006 1148.03 494.816 1151.28C495.626 1154.53 505.887 1160.29 512.907 1153.03C512.907 1153.03 511.827 1162.04 516.687 1163.29C521.547 1164.54 529.378 1162.29 533.428 1155.28C533.428 1155.28 538.019 1156.03 540.179 1155.53L540.136 1155.59C542.178 1155.41 549.184 1154.79 550.985 1154.28C553.102 1153.69 574.101 1131.2 578.257 1127.77C582.412 1124.34 579.337 1113.77 579.337 1113.77L606.065 1098.26C606.065 1098.26 630.906 1073.76 661.148 1051.75C691.39 1029.74 712.991 1005.24 715.151 982.229C717.311 959.223 740.532 897.204 740.532 897.204L729.399 827.932L688.896 774.916L686.528 785.669" fill="#FFCFCF"/>
<path fill-rule="evenodd" clip-rule="evenodd" d="M540.179 1155.53C540.179 1155.53 525.329 1174.04 530.999 1195.55C536.669 1217.05 568.802 1256.56 637.926 1250.56C707.05 1244.56 815.056 1209.55 815.056 1209.55C815.056 1209.55 1095.87 1262.57 1152.04 1253.56C1208.2 1244.56 1256.8 1217.55 1241.68 1159.54C1239.3 1159.82 1234.12 1153.03 1232.23 1151.78C1230.34 1150.53 1222.51 1150.53 1216.84 1150.28C1211.17 1150.03 1192.27 1124.27 1192.27 1124.27C1152.85 1102.77 1084.26 1094.76 1084.26 1094.76C1085.19 1091.9 1085.24 1088.53 1085.1 1086.19C1032.79 1094.08 920.823 1111.11 875.038 1119.04C814.322 1129.57 707.59 1095.26 707.59 1095.26C707.59 1095.26 657.368 1093.26 606.065 1098.26L579.337 1113.77C579.337 1113.77 582.577 1125.77 578.257 1127.77C573.937 1129.77 555.036 1152.78 550.985 1154.28C546.935 1155.78 540.179 1155.53 540.179 1155.53Z" fill="#6C5EBF"/>
<path fill-rule="evenodd" clip-rule="evenodd" d="M874.731 1124.52C874.731 1124.52 895.793 1131.02 892.012 1189.54C892.012 1189.54 944.935 1178.54 971.397 1156.03C997.858 1133.53 1028.82 1084.31 1084.26 1094.76C1085.88 1089.76 1084.8 1083.26 1084.8 1083.26C1076.16 1069.76 1038.9 1072.76 1038.9 1072.76C1031.88 1063.25 1016.22 1061.25 1016.22 1061.25C1016.22 1061.25 1001.1 1061.5 970.317 1095.51C970.317 1095.51 958.436 1112.02 919.554 1089.01C919.554 1089.01 875.811 1074.51 874.731 1124.52Z" fill="#FFADAD"/>
<path fill-rule="evenodd" clip-rule="evenodd" d="M815.149 1209.57C816.343 1209.79 842.326 1214.68 879.615 1221.17C879.605 1221.15 873.652 1206.03 876.08 1191.54L815.149 1209.57" fill="#FFADAD"/>
<path fill-rule="evenodd" clip-rule="evenodd" d="M756.193 1123.52C756.193 1123.52 771.314 1127.02 779.954 1131.27L813.976 1130.52C813.976 1130.52 795.615 1112.77 789.675 1106.77C783.735 1100.77 763.213 1095.26 752.953 1099.76C752.953 1099.76 738.407 1088.36 724.601 1090.01C710.796 1091.67 711.641 1101.02 711.641 1101.02C711.641 1101.02 714.341 1104.27 729.462 1107.02C729.462 1107.02 739.992 1119.27 756.193 1123.52Z" fill="#FFADAD"/>
<path d="M651.725 1158.6C651.879 1158.5 705.086 1123.68 753.575 1121.93L753.639 1123.59C705.687 1125.32 652.905 1159.86 652.752 1159.96L651.725 1158.6Z" fill="black"/>
<path d="M662.833 1114.44C662.921 1114.44 693.469 1116.35 713.856 1129.79L712.814 1131.15C692.846 1117.98 662.793 1116.11 662.706 1116.1L662.833 1114.44Z" fill="black"/>
<path d="M1112.97 1172.25C1112.75 1172.13 1039.98 1131.1 977.148 1151.89L976.545 1150.32C1040.19 1129.27 1113.68 1170.7 1113.88 1170.82L1112.97 1172.25" fill="black"/>
<path d="M748.777 1080.02C748.938 1080.09 804.205 1106.43 866.614 1104.94L866.656 1106.6C803.781 1108.1 748.122 1081.58 747.96 1081.5L748.777 1080.02" fill="black"/>
<path d="M734.97 1054.42C735.063 1054.43 767.251 1058.85 806.405 973.901L808.058 974.552C768.369 1060.66 734.864 1056.09 734.766 1056.08L734.97 1054.42Z" fill="black"/>
<path d="M749.3 1019.21C749.438 1019.06 797.736 965.877 805.802 909.1L807.581 909.315C799.447 966.573 750.818 1020.12 750.678 1020.27L749.3 1019.21Z" fill="black"/>
<path d="M998.128 1025.59C998.002 1025.33 952.172 934.96 943.513 888.841L945.286 888.561C953.909 934.47 999.622 1024.63 999.757 1024.89L998.128 1025.59" fill="black"/>
<path d="M989.425 978.411C989.362 978.134 965.646 882.312 964.026 845.721L965.817 845.656C967.437 882.086 991.108 977.77 991.18 978.046L989.425 978.411" fill="black"/>
<path d="M996.427 961.203C996.427 961.094 997.498 923.306 987.274 884.899L989.011 884.501C999.298 923.116 998.218 961.133 998.218 961.243L996.427 961.203" fill="black"/>
<path d="M1008.85 926.161C1008.86 925.996 1013.14 868.925 987.4 833.65L988.885 832.717C1014.98 868.467 1010.65 926.099 1010.64 926.266L1008.85 926.161" fill="black"/>
<path d="M727.973 1070.51C728.102 1070.57 772.547 1091.27 798.284 1071.37C824.249 1051.29 847.267 963.031 847.334 962.777L849.078 963.168C849.011 963.424 825.855 1052.21 799.437 1072.64C772.791 1093.25 727.311 1072.06 727.179 1072L727.973 1070.51" fill="black"/>
<path d="M544.037 1139.31C544.036 1139.29 543.51 1131.24 542.271 1129.63C541.891 1129.14 541.088 1128.59 540.159 1128.28C539.564 1128.08 538.926 1127.99 538.336 1128.09C537.787 1128.17 537.269 1128.44 536.86 1128.95C536.387 1129.54 536.045 1130.46 535.932 1131.82C535.761 1133.87 535.036 1136.66 534.266 1139.62C532.625 1145.94 530.771 1153.07 533.776 1154.75L533.081 1155.82C529.233 1153.67 531.209 1146.06 532.958 1139.34C533.712 1136.43 534.423 1133.7 534.587 1131.72C534.721 1130.11 535.161 1128.98 535.779 1128.2C536.419 1127.4 537.237 1126.99 538.109 1126.85C538.941 1126.72 539.813 1126.84 540.612 1127.11C541.798 1127.5 542.85 1128.24 543.368 1128.91C544.831 1130.8 545.381 1139.21 545.383 1139.24L544.037 1139.31" fill="black"/>
<path d="M541.781 1123.55C541.798 1123.51 547.527 1108.86 559.33 1101.74L560.062 1102.78C548.643 1109.67 543.064 1123.94 543.048 1123.98L541.781 1123.55" fill="black"/>
<path d="M520.053 1123.27C520.039 1123.27 514.811 1123.61 514.328 1128.08C513.791 1133.06 513.58 1152.98 513.579 1153.04L512.235 1153.03C512.235 1152.97 512.446 1132.98 512.989 1127.96C513.586 1122.43 519.936 1122.02 519.954 1122.02L520.053 1123.27" fill="black"/>
<path d="M508.185 1095.29C508.199 1095.29 512.877 1093.79 515.605 1096.18L515.811 1096.37C517.04 1097.55 518.043 1099.51 518.279 1101.62C518.519 1103.75 517.99 1106.03 516.153 1107.83L515.88 1108.09C512.078 1111.48 506.164 1116.46 506.147 1116.48L505.24 1115.55C505.257 1115.54 511.19 1110.54 514.947 1107.19L515.173 1106.98C516.704 1105.48 517.143 1103.55 516.939 1101.75C516.734 1099.92 515.883 1098.23 514.84 1097.23L514.683 1097.09C512.55 1095.22 508.613 1096.47 508.602 1096.48L508.185 1095.29" fill="black"/>
<path d="M499.197 1119.78C499.192 1119.79 497.203 1122.02 496.299 1133.07L494.954 1132.98C495.889 1121.55 498.142 1119.01 498.148 1119L499.197 1119.78" fill="black"/>
<path d="M520.027 1105.01C520.047 1105.01 527.023 1105.36 529.335 1095.25L530.653 1095.51C528.105 1106.66 520.003 1106.26 519.98 1106.26L520.027 1105.01" fill="black"/>
<path d="M526.751 1136.98C526.754 1137.02 527.836 1150.42 527.42 1152.99L526.085 1152.81C526.48 1150.38 525.409 1137.1 525.406 1137.06L526.751 1136.98" fill="black"/>
<path d="M526.568 1143.23C526.574 1143.23 528.926 1141.64 532.146 1142.22L531.889 1143.45C529.237 1142.97 527.348 1144.25 527.343 1144.25L526.568 1143.23Z" fill="black"/>
<path d="M510.466 1120.76C510.471 1120.78 512.379 1128.48 511.022 1146.69L509.677 1146.61C511.02 1128.56 509.158 1121.05 509.153 1121.02L510.466 1120.76" fill="black"/>
<path d="M522.609 1105.55C522.636 1105.56 531.739 1108.94 538.599 1104.74L539.342 1105.78C531.893 1110.34 522.147 1106.73 522.119 1106.72L522.609 1105.55" fill="black"/>
<path d="M637.399 1118.68C637.257 1118.72 587.306 1133.33 622.715 1176.4L621.286 1177.41C584.331 1132.46 636.694 1117.14 636.844 1117.1L637.399 1118.68" fill="black"/>
<path d="M1202.11 1088.96C1202.12 1089.02 1208.46 1110.29 1230.93 1111.51L1230.85 1112.76C1207.41 1111.48 1200.83 1089.36 1200.8 1089.3L1202.11 1088.96" fill="black"/>
<path d="M1233.44 1091.99C1233.43 1092.03 1230.31 1107.5 1238.43 1110.56C1246.65 1113.65 1250.65 1109.71 1250.66 1109.7L1251.62 1110.57C1251.6 1110.59 1246.98 1115.13 1237.92 1111.72C1228.77 1108.27 1232.11 1091.82 1232.11 1091.77L1233.44 1091.99" fill="black"/>
<path d="M1252.07 1095.26C1252.06 1095.28 1250.49 1102.18 1251.87 1104.73L1250.67 1105.29C1249.08 1102.34 1250.75 1095.03 1250.75 1095.01L1252.07 1095.26Z" fill="black"/>
<path d="M1247.89 1114.5C1247.89 1114.51 1247.89 1117.69 1253.42 1121.38C1259.35 1125.34 1268.85 1141.17 1268.87 1141.22L1267.69 1141.82C1267.67 1141.78 1258.31 1126.19 1252.64 1122.4C1246.55 1118.34 1246.55 1114.54 1246.55 1114.53L1247.89 1114.5" fill="black"/>
<path d="M1245.48 1123.83C1245.46 1123.84 1241.68 1125.37 1243.69 1132.1C1245.83 1139.31 1251.74 1151.23 1251.74 1151.26L1250.52 1151.78C1250.51 1151.75 1244.56 1139.73 1242.38 1132.43C1240.07 1124.67 1244.9 1122.7 1244.91 1122.7L1245.48 1123.83" fill="black"/>
<path d="M1235.71 1133.69C1235.69 1133.7 1231.07 1138.21 1233.17 1148.66L1231.84 1148.88C1229.62 1137.83 1234.7 1132.86 1234.71 1132.85L1235.71 1133.69" fill="black"/>
<path d="M1229.53 1138.64C1229.51 1138.63 1223.64 1134.38 1221.69 1143.52L1220.37 1143.28C1222.74 1132.16 1230.33 1137.63 1230.35 1137.65L1229.53 1138.64" fill="black"/>
<path d="M1243.01 1116.7C1243 1116.72 1240.77 1123.42 1233.41 1127.79L1232.68 1126.74C1239.63 1122.61 1241.71 1116.34 1241.72 1116.32L1243.01 1116.7" fill="black"/>
<path d="M1256.71 1109.03C1256.72 1109.03 1261.19 1110.07 1268.33 1116.18L1267.42 1117.1C1260.53 1111.2 1256.38 1110.24 1256.37 1110.24L1256.71 1109.03Z" fill="black"/>
<path d="M871.858 1127.22C871.693 1127.23 814.556 1132.74 779.937 1132.11L779.972 1130.44C814.465 1131.08 871.51 1125.58 871.676 1125.56L871.858 1127.22Z" fill="black"/>
<path d="M877.775 1190.08C877.798 1190.08 885.855 1189.47 891.892 1188.72L892.131 1190.37C886.006 1191.13 877.931 1191.74 877.909 1191.74L877.775 1190.08Z" fill="black"/>
<path d="M725.241 814.169C725.138 814.044 689.417 770.064 666.64 757.886L667.533 756.443C690.642 768.797 726.572 813.035 726.675 813.169L725.241 814.169Z" fill="black"/>
<path d="M1041.74 815.745C1041.77 815.628 1051.61 772.874 1098.15 750.175L1098.99 751.651C1053.18 773.991 1043.53 815.987 1043.49 816.104L1041.74 815.745" fill="black"/>
<path d="M782.071 1137.08C782.099 1137.12 791.958 1151.32 788.685 1179.62L786.899 1179.44C790.106 1151.72 780.579 1137.99 780.552 1137.95L782.071 1137.08" fill="black"/>
<path d="M1110.07 1161.7C1110.2 1161.72 1154.43 1169.04 1180.22 1155.3L1181.11 1156.74C1154.75 1170.79 1109.9 1163.36 1109.77 1163.34L1110.07 1161.7" fill="black"/>
<path d="M877.484 507.569L872.526 522.249C873.812 525.174 887.092 552.491 945.016 575.081C882.825 554.933 870.77 522.657 870.734 522.565L870.716 522.032L875.768 507.077L877.484 507.569Z" fill="#55392B"/>
<path d="M877.291 517.772L873.823 523.824C875.025 525.691 885.474 540.812 919.788 559.734L919.329 560.451C882.5 540.137 872.946 524.09 872.917 524.04L872.797 523.84L876.497 517.388L877.291 517.772" fill="#55392B"/>
<path d="M866.176 515.322L872.089 522.207L871.991 522.432C871.965 522.491 862.953 543.605 843.404 556.676L842.881 556.001C861.077 543.83 870.046 524.616 871.059 522.341L865.472 515.839L866.176 515.322Z" fill="#55392B"/>
<path d="M876.118 506.819C876.173 506.877 892.989 525.758 955.529 552.474L955.403 552.741C894.275 529.192 875.474 507.403 875.418 507.336L876.118 506.819Z" fill="#AE7F63"/>
<path d="M876.122 474.093C876.22 474.076 910.095 466.549 934.837 485.688L934.261 486.321C909.861 467.457 876.423 474.885 876.326 474.91L876.122 474.093" fill="#AE7F63"/>
<path d="M875.932 479.836C876.065 479.836 922.101 477.068 953.018 523.049L952.262 523.482C921.615 477.935 876.11 480.661 875.978 480.67L875.932 479.836Z" fill="#AE7F63"/>
<path d="M854.712 484.662C854.654 484.671 834.595 487.521 827.763 509.128L826.901 508.895C833.892 486.788 854.506 483.854 854.565 483.837L854.712 484.662Z" fill="#AE7F63"/>
<path d="M873.68 465.757C873.65 465.707 862.742 449.035 871.792 435.073L872.561 435.498C863.791 449.035 874.424 465.282 874.453 465.332L873.68 465.757Z" fill="#AE7F63"/>
<path d="M879.839 467.141C879.823 467.074 873.717 443.442 889.961 429.479L890.573 430.088C874.713 443.725 880.699 466.891 880.715 466.957L879.839 467.141Z" fill="#AE7F63"/>
<path d="M936.907 479.152C936.934 479.127 947.645 471.058 950.318 460.196L951.191 460.38C948.455 471.525 937.51 479.769 937.474 479.794L936.907 479.152" fill="#AE7F63"/>
<path d="M933.226 477.56C933.253 477.518 942.667 463.047 933.091 448.759L933.856 448.318C943.72 463.039 934.027 477.935 934 477.977L933.226 477.56Z" fill="#AE7F63"/>
<path fill-rule="evenodd" clip-rule="evenodd" d="M298.854 1251.71H536.274C539.097 1251.71 541.406 1249.57 541.406 1246.95C541.406 1244.34 539.097 1242.2 536.274 1242.2H298.854C296.032 1242.2 293.722 1244.34 293.722 1246.95C293.722 1249.57 296.032 1251.71 298.854 1251.71Z" fill="#168C8C"/>
<path fill-rule="evenodd" clip-rule="evenodd" d="M801.989 1251.71H928.338C931.156 1251.71 933.469 1249.57 933.469 1246.95C933.469 1244.34 931.156 1242.2 928.338 1242.2H801.989C799.166 1242.2 796.856 1244.34 796.856 1246.95C796.856 1249.57 799.166 1251.71 801.989 1251.71Z" fill="#168C8C"/>
<path fill-rule="evenodd" clip-rule="evenodd" d="M1234.01 1251.71H1360.36C1363.18 1251.71 1365.49 1249.57 1365.49 1246.95C1365.49 1244.34 1363.18 1242.2 1360.36 1242.2H1234.01C1231.19 1242.2 1228.88 1244.34 1228.88 1246.95C1228.88 1249.57 1231.19 1251.71 1234.01 1251.71Z" fill="#168C8C"/>
<path fill-rule="evenodd" clip-rule="evenodd" d="M1393.86 1251.71H1594.21C1597.03 1251.71 1599.34 1249.57 1599.34 1246.95C1599.34 1244.34 1597.03 1242.2 1594.21 1242.2H1393.86C1391.03 1242.2 1388.73 1244.34 1388.73 1246.95C1388.73 1249.57 1391.03 1251.71 1393.86 1251.71Z" fill="#168C8C"/>
<mask id="mask0_204_4898" style="mask-type:alpha" maskUnits="userSpaceOnUse" x="457" y="546" width="392" height="746">
<path d="M627 1281C605 1281 488.5 1304.5 457 1281C457 1244 780.503 552.005 784.503 548.005C788.503 544.005 807.503 547.505 819.003 548.005C830.503 548.505 848.503 661.505 848.503 741.505C848.503 821.505 649 1281 627 1281Z" fill="#C4C4C4"/>
</mask>
<g mask="url(#mask0_204_4898)">
<path d="M506 1257.5C501 1241.5 610.5 1088.5 644 1083C712.235 1071.8 732.777 1044.5 739.505 1026C746.232 1007.5 749.082 838.532 767.505 836.999C785.927 835.466 758.851 766.87 772.295 758.181C785.738 749.493 799.367 757.159 806.65 742.338C817.78 719.687 805.814 603.5 804.226 571.5" stroke="#FF5C5C" stroke-width="2"/>
</g>
<path d="M981.927 580.186C981.124 590.492 973.384 607.183 951.874 602.834C950.211 601.079 953.273 590.683 954.936 581.395C956.599 572.106 954.101 556.127 956.302 555.757C978.492 554.957 982.729 569.879 981.927 580.186Z" fill="#FF5C5C"/>
<path d="M799.01 580.186C799.812 590.492 807.552 607.183 829.062 602.834C830.726 601.079 826.534 594.176 826.001 581.395C825.469 568.613 828.661 553.995 825.472 553.988C803.281 553.188 798.207 569.879 799.01 580.186Z" fill="#FF5C5C"/>
<path d="M814.792 562.191C808.534 539.055 817.061 464.708 893.091 467.054C976.531 469.625 971.393 546.764 964.544 563.468" stroke="#FF5C5C" stroke-width="1.4"/>
<path d="M960.573 600.753C964.844 587.897 967.692 580.183 963.421 558.328" stroke="#FF9595" stroke-width="2" stroke-linecap="round" stroke-linejoin="round"/>
<path d="M822.471 600.751C816.776 589.181 813.929 571.183 818.2 557.041" stroke="#FF9595" stroke-width="2" stroke-linecap="round" stroke-linejoin="round"/>
<rect x="479" y="1268" width="343" height="66" rx="16" fill="white"/>
<circle opacity="0.3" cx="511.997" cy="1301" r="25" fill="#01BF71"/>
<mask id="mask1_204_4898" style="mask-type:alpha" maskUnits="userSpaceOnUse" x="486" y="1276" width="51" height="51">
<circle cx="511.997" cy="1301" r="25" fill="#FFEDCB"/>
</mask>
<g mask="url(#mask1_204_4898)">
<path d="M513.924 1281.16C507.707 1274.66 503.078 1282.68 503.723 1290.97C504.34 1298.87 511.306 1326.17 509.986 1337.4H512.45C518.681 1322.95 521.918 1289.52 513.924 1281.16Z" fill="#01BF71"/>
<path d="M511.614 1337.39C517.913 1314.47 510.803 1288.62 510.776 1288.51C510.728 1288.31 510.529 1288.19 510.331 1288.24C510.134 1288.28 510.013 1288.48 510.06 1288.68C510.087 1288.79 517.208 1314.68 510.861 1337.39H511.614Z" fill="#01BF71"/>
<path d="M495.745 1291.97C488.648 1288.12 486.859 1296.52 489.626 1303.46C491.933 1309.25 502.179 1326.46 505.95 1337.39H509.481C509.844 1322.3 504.161 1296.53 495.745 1291.97Z" fill="#01BF71"/>
<path opacity="0.3" d="M508.106 1337.39C505.854 1316.92 492.635 1294.58 492.588 1294.5C492.496 1294.34 492.3 1294.29 492.149 1294.38C491.999 1294.48 491.95 1294.68 492.041 1294.84C492.088 1294.92 505.222 1317.12 507.471 1337.39H508.106Z" fill="#01BF71"/>
<path opacity="0.3" d="M527.49 1296.23C535.459 1292.66 536.722 1301.9 533.181 1309.18C530.768 1314.15 522.023 1326.92 516.21 1337.71H509.675C511.904 1321.44 519.212 1299.94 527.49 1296.23Z" fill="#F8C56A"/>
<path opacity="0.3" d="M512.003 1337.7C517.622 1317.94 530.758 1299.24 530.81 1299.17C530.922 1299 531.141 1298.97 531.297 1299.08C531.455 1299.2 531.492 1299.42 531.38 1299.58C531.328 1299.66 518.329 1318.16 512.723 1337.7H512.003Z" fill="#01BF71"/>
<path d="M530.32 1307.47C536.09 1306.76 535.153 1312.66 531.455 1316.54C527.928 1320.24 513.316 1331.03 509.409 1337.18L508.171 1336.17C510.918 1326.4 522.9 1308.37 530.32 1307.47Z" fill="#01BF71"/>
<path d="M517.469 1301.15C521.678 1297.98 523.616 1303.04 522.471 1307.75C521.379 1312.25 514.803 1327.34 514.524 1333.94L513.095 1333.7C510.826 1324.8 512.058 1305.22 517.469 1301.15Z" fill="#01BF71"/>
<path opacity="0.3" d="M505.002 1284.13C498.402 1279.16 495.362 1287.09 497.158 1294.49C498.87 1301.54 509.184 1325.2 509.621 1335.55L511.862 1335.19C515.421 1321.21 513.489 1290.51 505.002 1284.13Z" fill="#01BF71"/>
<circle cx="512.136" cy="1300.86" r="8.32821" fill="white"/>
<path d="M490.492 1304.4C484.216 1303.64 485.236 1310.06 489.257 1314.27C493.093 1318.3 508.985 1330.03 513.234 1336.72L514.581 1335.62C511.593 1325 498.562 1305.39 490.492 1304.4Z" fill="#01BF71"/>
<path d="M512.302 1333.21C505.907 1319.37 492.085 1309.16 492.028 1309.11C491.926 1309.03 491.784 1309.05 491.712 1309.15C491.639 1309.24 491.664 1309.39 491.766 1309.47C491.822 1309.51 505.664 1319.74 511.951 1333.49L512.302 1333.21Z" fill="white"/>
<path d="M508.625 1336.55C515.02 1322.71 528.842 1312.5 528.899 1312.45C529.001 1312.37 529.143 1312.39 529.215 1312.49C529.288 1312.58 529.263 1312.73 529.161 1312.81C529.105 1312.85 515.263 1323.08 508.976 1336.83L508.625 1336.55Z" fill="white"/>
<path d="M513.623 1333.79C512.373 1320.04 518.59 1305.76 518.614 1305.7C518.658 1305.59 518.777 1305.54 518.878 1305.59C518.98 1305.63 519.026 1305.75 518.983 1305.86C518.958 1305.92 512.732 1320.22 514.027 1333.86L513.623 1333.79Z" fill="white"/>
<path d="M511.03 1335.32C512.99 1313.75 503.24 1291.36 503.202 1291.27C503.133 1291.09 502.947 1291.01 502.788 1291.08C502.629 1291.15 502.556 1291.35 502.624 1291.52C502.662 1291.61 512.428 1314.04 510.396 1335.42L511.03 1335.32Z" fill="white"/>
</g>
<rect x="569" y="1287.8" width="3" height="25.6083" rx="1.5" fill="#132D84"/>
<rect x="576" y="1293.48" width="3" height="14.2269" rx="1.5" fill="#132D84"/>
<rect x="583" y="1297.28" width="3" height="6.6392" rx="1.5" fill="#132D84"/>
<rect x="590" y="1289.7" width="3" height="21.8145" rx="1.5" fill="#132D84"/>
<rect x="597" y="1293.48" width="3" height="14.2269" rx="1.5" fill="#132D84"/>
<rect x="604" y="1296.34" width="3" height="8.53611" rx="1.5" fill="#132D84"/>
<rect x="611" y="1293.48" width="3" height="14.2269" rx="1.5" fill="#132D84"/>
<rect x="618" y="1288.75" width="3" height="23.7114" rx="1.5" fill="#132D84"/>
<rect x="625" y="1284" width="3" height="33.196" rx="1.5" fill="#DDE1F0"/>
<rect x="632" y="1292.54" width="3" height="16.1238" rx="1.5" fill="#DDE1F0"/>
<rect x="639" y="1295.38" width="3" height="10.433" rx="1.5" fill="#DDE1F0"/>
<rect x="646" y="1297.28" width="3" height="6.6392" rx="1.5" fill="#DDE1F0"/>
<rect x="653" y="1290.64" width="3" height="19.9176" rx="1.5" fill="#DDE1F0"/>
<rect x="660" y="1286.85" width="3" height="27.5053" rx="1.5" fill="#DDE1F0"/>
<rect x="667" y="1292.54" width="3" height="16.1238" rx="1.5" fill="#DDE1F0"/>
<rect x="674" y="1295.38" width="3" height="10.433" rx="1.5" fill="#DDE1F0"/>
<rect x="681" y="1289.7" width="3" height="21.8145" rx="1.5" fill="#DDE1F0"/>
<rect x="688" y="1294.44" width="3" height="12.3299" rx="1.5" fill="#DDE1F0"/>
<rect x="695" y="1296.34" width="3" height="8.53611" rx="1.5" fill="#DDE1F0"/>
<rect x="702" y="1287.8" width="3" height="25.6083" rx="1.5" fill="#DDE1F0"/>
<rect x="709" y="1296.34" width="3" height="8.53611" rx="1.5" fill="#DDE1F0"/>
<rect x="716" y="1290.64" width="3" height="19.9176" rx="1.5" fill="#DDE1F0"/>
<rect x="723" y="1296.34" width="3" height="8.53611" rx="1.5" fill="#DDE1F0"/>
<rect x="730" y="1290.64" width="3" height="19.9176" rx="1.5" fill="#DDE1F0"/>
<rect x="737" y="1296.34" width="3" height="8.53611" rx="1.5" fill="#DDE1F0"/>
<rect x="744" y="1297.28" width="3" height="6.6392" rx="1.5" fill="#DDE1F0"/>
<rect x="562" y="1292.54" width="3" height="15.1753" rx="1.5" fill="#132D84"/>
<rect x="555" y="1297.28" width="3" height="6.6392" rx="1.5" fill="#132D84"/>
<path d="M791.497 1303.6C793.497 1302.44 793.497 1299.56 791.497 1298.4L779.497 1291.47C777.497 1290.32 774.997 1291.76 774.997 1294.07V1307.93C774.997 1310.24 777.497 1311.68 779.497 1310.53L791.497 1303.6Z" fill="#FFE8BC"/>
<path d="M806.497 1303.6C808.497 1302.44 808.497 1299.56 806.497 1298.4L794.497 1291.47C792.497 1290.32 789.997 1291.76 789.997 1294.07V1307.93C789.997 1310.24 792.497 1311.68 794.497 1310.53L806.497 1303.6Z" fill="#FFE8BC"/>
<path d="M787.497 1303.6C785.497 1302.44 785.497 1299.56 787.497 1298.4L799.497 1291.47C801.497 1290.32 803.997 1291.76 803.997 1294.07V1307.93C803.997 1310.24 801.497 1311.68 799.497 1310.53L787.497 1303.6Z" fill="#FFE8BC"/>
<path d="M772.497 1303.6C770.497 1302.44 770.497 1299.56 772.497 1298.4L784.497 1291.47C786.497 1290.32 788.997 1291.76 788.997 1294.07V1307.93C788.997 1310.24 786.497 1311.68 784.497 1310.53L772.497 1303.6Z" fill="#FFE8BC"/>
<rect opacity="0.6" x="764" y="1276" width="50" height="50" rx="25" fill="#01BF71"/>
<rect x="781" y="1291" width="6" height="20" rx="2" fill="white"/>
<rect x="791" y="1291" width="6" height="20" rx="2" fill="white"/>
<path d="M502 1258.5C502 1256.57 503.567 1255 505.5 1255V1255C507.433 1255 509 1256.57 509 1258.5V1268H502V1258.5Z" fill="#FF5C5C"/>
</g>
<defs>
<clipPath id="clip0_204_4898">
<rect width="1801" height="1668" fill="white"/>
</clipPath>
</defs>
</svg>
